<svg xmlns="http://www.w3.org/2000/svg" viewBox="0 0 141.841 155.84"><defs><style>.cls-1{fill:#B7BD9A;}</style></defs><g id="Слой_2" data-name="Слой 2"><g id="OBJECTS"><path class="cls-1" d="M68.292,136.6c-5.93-5.341-12.388,4.619-17.03,7.109-8.708,4.673-18.923,3.42-26.723-2.405C9.348,129.961,1.859,108.718,1.475,90.371l-1.259.521c10.5,11.347,22.032,23.273,38.238,25.006.626.067.854-.672.648-1.129a46.194,46.194,0,0,0-14.257-17.7c-7.1-5.5-13.095-10.833-16.81-19.228-4.049-9.152-3.8-18.348,1.684-26.846,4.991-7.732,12.78-13.014,20.25-18.111l-1.11-.853c-2.79,9.227-1.23,21.478,6.7,27.883,2.771,2.238,7.452,3.98,10.675,1.563,3.278-2.459,1.922-7.793.933-11.063a27.114,27.114,0,0,0-3.013-6.626c-1.461-2.313-3.714-4.173-4.993-6.572-3.9-7.309,4.534-13.206,9.7-16.634,8-5.31,17.091-10.176,21.124-19.4l-1.233.159c9,11.594,25.249,11.384,36.677,19.35,7.792,5.432,10.375,13.706,7.419,22.764A43.675,43.675,0,0,1,97.155,64.512c-.868.642-.023,2.116.857,1.465,11.564-8.559,24.758-27.817,13.778-41.608C101.145,11,80.33,13.718,69.864.23a.788.788,0,0,0-1.233.159c-3.656,8.353-11.59,12.993-18.926,17.755C43.894,21.916,35.111,27.3,36.866,35.538c.867,4.071,4.814,6.919,6.752,10.459,2.361,4.31,6.384,17.709-3.593,14.63-5.189-1.6-8.327-7.279-9.8-12.137a27.563,27.563,0,0,1,.091-16.059.763.763,0,0,0-1.11-.853C15.344,41.069-.854,54.182,4.663,73.147a42.39,42.39,0,0,0,14.43,21.434c3.6,2.858,7.4,5.44,10.6,8.764a42.86,42.86,0,0,1,8.114,12.182l.647-1.129C22.718,112.735,11.4,100.87,1.259,89.849A.745.745,0,0,0,0,90.371c.341,17.987,7.239,37.4,20.746,49.766,6.011,5.5,13.619,8.8,21.861,7.841a26.065,26.065,0,0,0,10.722-3.708c3.663-2.277,9.378-10.786,14.035-6.74.633.55,1.559-.359.928-.928Z"/><path class="cls-1" d="M97.584,65.83c11.425-1.361,22.053-6.548,30.876-13.824h-1.135c4.339,3.461,8.973,8.53,9.505,14.329.571,6.233-3.595,11.984-7.971,15.953-8.68,7.871-20.41,10.711-31.526,13.234a.85.85,0,0,0-.5,1.239c3.82,5.831,13.944,4.581,19.8,3.806a54.574,54.574,0,0,0,24.013-9.373l-1.185-.482C142.05,102,138.076,117,127,122.34a40.637,40.637,0,0,1-34.3.259c-.7-.329-1.635.38-1.148,1.148,7.944,12.506,24.468,6.244,35.958,4.416l-1.019-1.02c-1.937,5.923-6.691,10.092-11.277,14.038a66.207,66.207,0,0,1-14.667,10.075c-6.145,2.9-12.989,3.991-19.625,2.181-7.562-2.062-13.772-7.784-12.042-16.189.214-1.042-1.384-1.488-1.6-.441-3.347,16.2,16.766,21.605,28.941,17.933,6.945-2.094,12.989-6.359,18.506-10.952,5.4-4.5,11.116-9.317,13.362-16.2.215-.659-.441-1.112-1.02-1.02C116.409,128.27,100.429,134.6,93,122.9l-1.148,1.148a42.26,42.26,0,0,0,36.926-.723c11.138-5.874,14.916-21.538,12.237-33.042a.812.812,0,0,0-1.184-.482,53.363,53.363,0,0,1-19.669,8.517,51.61,51.61,0,0,1-10.885,1.064c-3.713-.032-8.715,0-10.991-3.473q-.252.621-.5,1.24c12.681-2.873,26.486-6.372,35.25-16.754,3.528-4.18,6.251-9.647,5.286-15.255-.991-5.754-5.442-10.759-9.857-14.27a.835.835,0,0,0-1.135,0c-8.753,7.244-18.846,11.478-29.9,13.809-.635.134-.506,1.23.156,1.151Z"/><path class="cls-1" d="M70.371,6.131c-.9,4.731.684,10.55,1.417,15.287q1.356,8.768,3.3,17.428C76.37,44.554,77.96,50.17,79.44,55.827a85.339,85.339,0,0,1,2.325,17.535c.567,11.22.9,22.508-2.09,33.438-2.857,10.435-7.507,20.32-12.539,29.862-.481.912.9,1.723,1.384.809,4.9-9.339,9.432-19.007,12.341-29.174C83.9,97.679,83.9,86.833,83.389,75.878c-.262-5.652-.45-11.356-1.66-16.9C80.5,53.321,78.708,47.789,77.35,42.161Q75.271,33.542,73.734,24.8c-.513-2.91-.97-5.829-1.4-8.752-.47-3.2-.478-6.909-1.729-9.919-.04-.1-.21-.133-.235,0Z"/><path class="cls-1" d="M77.273,46.707a.333.333,0,0,1-.195-.6,40.723,40.723,0,0,0,14.6-19.795.333.333,0,0,1,.631.213A41.388,41.388,0,0,1,77.469,46.644.334.334,0,0,1,77.273,46.707Z"/><path class="cls-1" d="M77.281,45.734a.316.316,0,0,1-.12-.023A49.855,49.855,0,0,1,54.988,28.638a.333.333,0,1,1,.54-.391A49.19,49.19,0,0,0,77.4,45.09a.333.333,0,0,1-.119.644Z"/><path class="cls-1" d="M87.7,83.824q-2.492,0-4.977-.243a.334.334,0,0,1-.3-.364.34.34,0,0,1,.365-.3A52.829,52.829,0,0,0,123.678,68.94a.334.334,0,0,1,.458.485A53.614,53.614,0,0,1,87.7,83.824Z"/><path class="cls-1" d="M58.486,90.405a40.892,40.892,0,0,1-10.8-1.44,41.833,41.833,0,0,1-26.82-22.946.333.333,0,0,1,.608-.273,40.74,40.74,0,0,0,60.6,16.6.333.333,0,1,1,.384.545A41.825,41.825,0,0,1,58.486,90.405Z"/><path class="cls-1" d="M105.193,113.817a49.712,49.712,0,0,1-24.59-6.406.333.333,0,0,1,.331-.579,49.5,49.5,0,0,0,43.3,2.483.334.334,0,1,1,.263.613A49.09,49.09,0,0,1,105.193,113.817Z"/><path class="cls-1" d="M96.311,141.39A22.565,22.565,0,0,1,74.32,124.229a.333.333,0,1,1,.647-.16,21.907,21.907,0,0,0,23.08,16.583.337.337,0,0,1,.36.3.333.333,0,0,1-.3.36Q97.21,141.39,96.311,141.39Z"/><path class="cls-1" d="M39.678,130.7a24.719,24.719,0,0,1-18.626-8.557.333.333,0,1,1,.509-.43,23.953,23.953,0,0,0,21.225,8.1c3.995-.567,7.817-2.17,11.513-3.72,1.148-.482,2.335-.979,3.51-1.44,5.426-2.122,11.787-2.592,16.6-1.228a.333.333,0,1,1-.182.641c-4.681-1.327-10.88-.864-16.175,1.209-1.169.457-2.352.953-3.5,1.432-3.735,1.567-7.6,3.187-11.677,3.766A22.863,22.863,0,0,1,39.678,130.7Z"/><path class="cls-1" d="M67.808,108.532a46.307,46.307,0,0,1-19.122-4.125.333.333,0,0,1,.276-.607,46.306,46.306,0,0,0,30.606,2.523.333.333,0,1,1,.172.644A46.2,46.2,0,0,1,67.808,108.532Z"/><path class="cls-1" d="M125.167,75.9a.333.333,0,0,1-.2-.6,32.681,32.681,0,0,0,10.72-14.055.334.334,0,0,1,.62.246,33.345,33.345,0,0,1-10.939,14.341A.333.333,0,0,1,125.167,75.9Z"/><path class="cls-1" d="M134.909,69a.333.333,0,0,1-.287-.5,18.258,18.258,0,0,0,1.965-4.747.333.333,0,1,1,.645.166,18.94,18.94,0,0,1-2.035,4.92A.336.336,0,0,1,134.909,69Z"/><path class="cls-1" d="M91.409,80.851a.334.334,0,0,1,0-.667,38.135,38.135,0,0,0,21.59-6.8.333.333,0,1,1,.381.547,38.815,38.815,0,0,1-21.971,6.916Z"/><path class="cls-1" d="M87.251,86.7q-2.187,0-4.372-.192a.333.333,0,1,1,.058-.664,49.113,49.113,0,0,0,14.082-.793.333.333,0,0,1,.133.653A49.732,49.732,0,0,1,87.251,86.7Z"/><path class="cls-1" d="M100.748,85.179a.333.333,0,0,1-.122-.643l3.833-1.5a.333.333,0,1,1,.243.62l-3.832,1.5A.33.33,0,0,1,100.748,85.179Z"/><path class="cls-1" d="M86.611,77.956a17.569,17.569,0,0,1-4.108-.487.333.333,0,0,1-.246-.4.329.329,0,0,1,.4-.246,16.922,16.922,0,0,0,8.987-.3.333.333,0,1,1,.2.636A17.557,17.557,0,0,1,86.611,77.956Z"/><path class="cls-1" d="M58.213,87.853a34.372,34.372,0,0,1-6.515-.621.334.334,0,0,1,.126-.655,34.22,34.22,0,0,0,25.8-5.418.333.333,0,1,1,.379.548A34.9,34.9,0,0,1,58.213,87.853Z"/><path class="cls-1" d="M46.737,85.373a.327.327,0,0,1-.054,0A11.34,11.34,0,0,1,41.908,83.4a.333.333,0,1,1,.388-.542,10.684,10.684,0,0,0,4.494,1.852.333.333,0,0,1-.053.662Z"/><path class="cls-1" d="M68.88,92.705a.333.333,0,0,1-.077-.658,38.816,38.816,0,0,0,13.188-5.839.334.334,0,1,1,.378.55A39.474,39.474,0,0,1,68.956,92.7.342.342,0,0,1,68.88,92.705Z"/><path class="cls-1" d="M39.218,90.393a.327.327,0,0,1-.145-.033A43.663,43.663,0,0,1,22.187,75.871a.334.334,0,0,1,.549-.379A43,43,0,0,0,39.363,89.76a.333.333,0,0,1-.145.633Z"/><path class="cls-1" d="M77.375,49.173a.368.368,0,0,1-.066-.006A31.518,31.518,0,0,1,61.752,41a.333.333,0,1,1,.463-.479,30.848,30.848,0,0,0,15.225,8,.333.333,0,0,1-.065.66Z"/><path class="cls-1" d="M83.411,45.668a.333.333,0,0,1-.193-.6,16.944,16.944,0,0,0,5.546-6.708.334.334,0,0,1,.606.279,17.62,17.62,0,0,1-5.765,6.972A.334.334,0,0,1,83.411,45.668Z"/><path class="cls-1" d="M76.266,42.528a.333.333,0,0,1-.207-.594A41.3,41.3,0,0,0,86.921,28.751a.333.333,0,1,1,.591.307,41.956,41.956,0,0,1-11.038,13.4A.333.333,0,0,1,76.266,42.528Z"/><path class="cls-1" d="M66.405,36.84a.329.329,0,0,1-.171-.047,17.845,17.845,0,0,1-4.574-3.921.333.333,0,1,1,.513-.425,17.194,17.194,0,0,0,4.4,3.774.333.333,0,0,1-.171.619Z"/><path class="cls-1" d="M73.966,65.207a39.253,39.253,0,0,1-13.917-2.532.333.333,0,1,1,.237-.623A38.679,38.679,0,0,0,81.5,63.792a.333.333,0,0,1,.133.653A38.548,38.548,0,0,1,73.966,65.207Z"/><path class="cls-1" d="M76.546,63.161a13.135,13.135,0,0,1-3.405-.448.333.333,0,0,1,.173-.644,12.532,12.532,0,0,0,8.122-.567.333.333,0,0,1,.261.613A13.159,13.159,0,0,1,76.546,63.161Z"/><path class="cls-1" d="M85.4,62.821a.333.333,0,0,1-.173-.618,26.389,26.389,0,0,0,9.511-9.963.334.334,0,0,1,.586.319,27.063,27.063,0,0,1-9.752,10.214A.336.336,0,0,1,85.4,62.821Z"/><path class="cls-1" d="M81.579,67.347a.333.333,0,0,1-.076-.657,17.062,17.062,0,0,0,8.944-5.446.333.333,0,1,1,.5.434,17.728,17.728,0,0,1-9.3,5.66A.337.337,0,0,1,81.579,67.347Z"/><path class="cls-1" d="M56.871,61.272a.321.321,0,0,1-.113-.02L53.289,60a.333.333,0,0,1,.227-.627l3.468,1.253a.333.333,0,0,1-.113.647Z"/><path class="cls-1" d="M99.47,41.939a.334.334,0,0,1-.29-.5,32.945,32.945,0,0,0,3.51-22.4.334.334,0,1,1,.654-.132A33.616,33.616,0,0,1,99.76,41.769.331.331,0,0,1,99.47,41.939Z"/><path class="cls-1" d="M105.242,33.332a.366.366,0,0,1-.065-.006.333.333,0,0,1-.262-.392,33.4,33.4,0,0,0,.175-12.048.333.333,0,0,1,.657-.111,34.018,34.018,0,0,1-.179,12.288A.332.332,0,0,1,105.242,33.332Z"/><path class="cls-1" d="M103.909,39.165a.348.348,0,0,1-.105-.016.335.335,0,0,1-.211-.422l.667-2a.334.334,0,0,1,.633.211l-.667,2A.334.334,0,0,1,103.909,39.165Z"/><path class="cls-1" d="M108.39,30.823a.341.341,0,0,1-.145-.033.335.335,0,0,1-.156-.445,9.969,9.969,0,0,0,.776-6.269.333.333,0,0,1,.653-.134,10.646,10.646,0,0,1-.827,6.692A.335.335,0,0,1,108.39,30.823Z"/><path class="cls-1" d="M80.536,19.806a.334.334,0,0,1-.28-.516,11.167,11.167,0,0,0,1.328-9.243.333.333,0,1,1,.638-.193,11.841,11.841,0,0,1-1.407,9.8A.333.333,0,0,1,80.536,19.806Z"/><path class="cls-1" d="M84.846,15.812a.335.335,0,0,1-.317-.437,6.39,6.39,0,0,0,.089-3.63.333.333,0,0,1,.643-.176,7.074,7.074,0,0,1-.1,4.013A.334.334,0,0,1,84.846,15.812Z"/><path class="cls-1" d="M99.219,21.822a.325.325,0,0,1-.135-.029.333.333,0,0,1-.169-.44,5.862,5.862,0,0,0,.27-3.956.333.333,0,1,1,.64-.185,6.538,6.538,0,0,1-.3,4.412A.334.334,0,0,1,99.219,21.822Z"/><path class="cls-1" d="M62.24,22a.337.337,0,0,1-.187-.057,16.917,16.917,0,0,1-6.107-7.492.333.333,0,1,1,.616-.254,16.246,16.246,0,0,0,5.864,7.193.334.334,0,0,1-.186.61Z"/><path class="cls-1" d="M60.243,16.665a.333.333,0,0,1-.214-.077,8.516,8.516,0,0,1-2.256-2.95.334.334,0,0,1,.606-.279,7.814,7.814,0,0,0,2.077,2.717.333.333,0,0,1-.213.589Z"/><path class="cls-1" d="M48.216,38.036a.337.337,0,0,1-.193-.061,22.678,22.678,0,0,1-8.184-10.833.334.334,0,1,1,.629-.223,21.994,21.994,0,0,0,7.941,10.512.333.333,0,0,1-.193.605Z"/><path class="cls-1" d="M44.227,29.847a.331.331,0,0,1-.238-.1A13.937,13.937,0,0,1,41.282,25.8a.334.334,0,0,1,.607-.277,13.25,13.25,0,0,0,2.576,3.758.333.333,0,0,1-.238.566Z"/><path class="cls-1" d="M53.576,42a.33.33,0,0,1-.149-.036,10.162,10.162,0,0,1-3.1-2.413.333.333,0,1,1,.5-.436,9.523,9.523,0,0,0,2.9,2.254.333.333,0,0,1-.149.631Z"/><path class="cls-1" d="M23.374,54.349a.334.334,0,0,1-.3-.186,35.916,35.916,0,0,1-3.63-14.824A.332.332,0,0,1,19.769,39h.008a.334.334,0,0,1,.334.325,35.215,35.215,0,0,0,3.562,14.546.333.333,0,0,1-.153.446A.319.319,0,0,1,23.374,54.349Z"/><path class="cls-1" d="M26.038,59.354a.334.334,0,0,1-.289-.167L24.6,57.179a.333.333,0,0,1,.578-.332l1.154,2.008a.333.333,0,0,1-.289.5Z"/><path class="cls-1" d="M23.442,46.652a.333.333,0,0,1-.308-.2,21,21,0,0,1-1.585-8.626.334.334,0,0,1,.334-.323h.01a.335.335,0,0,1,.323.344,20.313,20.313,0,0,0,1.534,8.349.334.334,0,0,1-.18.436A.339.339,0,0,1,23.442,46.652Z"/><path class="cls-1" d="M18.891,50.675a.333.333,0,0,1-.3-.188,13.44,13.44,0,0,1-1.335-5.309.333.333,0,0,1,.32-.346.315.315,0,0,1,.346.319A12.788,12.788,0,0,0,19.19,50.2a.332.332,0,0,1-.154.445A.325.325,0,0,1,18.891,50.675Z"/><path class="cls-1" d="M12.2,71.534a.329.329,0,0,1-.265-.132A28.249,28.249,0,0,1,6.2,54.5a.334.334,0,0,1,.332-.335h0a.334.334,0,0,1,.334.332,27.582,27.582,0,0,0,5.6,16.5.334.334,0,0,1-.265.535Z"/><path class="cls-1" d="M10.506,61.869a.332.332,0,0,1-.294-.178A21.2,21.2,0,0,1,7.859,53.7a.333.333,0,1,1,.664-.058A20.526,20.526,0,0,0,10.8,61.38a.332.332,0,0,1-.295.489Z"/><path class="cls-1" d="M67.063,105.551a31.131,31.131,0,0,1-3.194-.165.334.334,0,0,1,.069-.664,30.126,30.126,0,0,0,11.045-.9.333.333,0,1,1,.175.643A30.782,30.782,0,0,1,67.063,105.551Z"/><path class="cls-1" d="M96.575,109.856h-.016A23.542,23.542,0,0,1,81.452,103.3a.333.333,0,1,1,.465-.478,22.865,22.865,0,0,0,14.673,6.369.334.334,0,0,1-.015.667Z"/><path class="cls-1" d="M102.741,109.689h-.016l-3.167-.16a.333.333,0,0,1-.316-.35.317.317,0,0,1,.35-.316l3.166.16a.333.333,0,0,1-.017.666Z"/><path class="cls-1" d="M69.582,112.688c-.452,0-.9-.012-1.356-.036a.333.333,0,0,1-.315-.35.344.344,0,0,1,.35-.316,25.435,25.435,0,0,0,10.905-1.841.333.333,0,0,1,.253.617A26.145,26.145,0,0,1,69.582,112.688Z"/><path class="cls-1" d="M64.408,112.174a.354.354,0,0,1-.085-.011,9.348,9.348,0,0,0-3.861-.181.333.333,0,0,1-.109-.658,9.983,9.983,0,0,1,4.139.194.333.333,0,0,1-.084.656Z"/><path class="cls-1" d="M101.3,116.73a44.627,44.627,0,0,1-17.877-3.725.333.333,0,1,1,.268-.61,43.944,43.944,0,0,0,24.334,3.14.333.333,0,1,1,.105.658A43.385,43.385,0,0,1,101.3,116.73Z"/><path class="cls-1" d="M126.9,102.636a.333.333,0,0,1-.061-.661,30.1,30.1,0,0,0,13.554-6.36.333.333,0,1,1,.425.514,30.771,30.771,0,0,1-13.856,6.5A.318.318,0,0,1,126.9,102.636Z"/><path class="cls-1" d="M133.909,102.832a.333.333,0,0,1-.063-.66A15.2,15.2,0,0,0,140.7,98.91a.334.334,0,0,1,.429.511,15.87,15.87,0,0,1-7.151,3.4A.347.347,0,0,1,133.909,102.832Z"/><path class="cls-1" d="M118.572,120.282a.333.333,0,0,1-.025-.665,51.235,51.235,0,0,0,17.247-4.376.333.333,0,0,1,.273.608,51.876,51.876,0,0,1-17.47,4.432Z"/><path class="cls-1" d="M86.025,134.682a.356.356,0,0,1-.091-.012,11.579,11.579,0,0,1-8.213-9.819.334.334,0,1,1,.664-.065,10.9,10.9,0,0,0,7.73,9.242.333.333,0,0,1-.09.654Z"/><path class="cls-1" d="M90.376,137.241a.312.312,0,0,1-.133-.028l-1.985-.869a.333.333,0,0,1,.267-.61l1.985.869a.333.333,0,0,1-.134.638Z"/><path class="cls-1" d="M77.383,135.04a.332.332,0,0,1-.183-.055,10.816,10.816,0,0,1-4.762-7.96.333.333,0,1,1,.664-.057,10.14,10.14,0,0,0,4.463,7.46.333.333,0,0,1-.182.612Z"/><path class="cls-1" d="M96.5,148.556a30.953,30.953,0,0,1-9.5-1.477.332.332,0,0,1-.215-.419.336.336,0,0,1,.419-.216,30.908,30.908,0,0,0,25.612-3.19.333.333,0,1,1,.354.565A31.522,31.522,0,0,1,96.5,148.556Z"/><path class="cls-1" d="M95.355,151.062q-.906,0-1.808-.051a.333.333,0,1,1,.038-.665,32.326,32.326,0,0,0,14.014-2.362.333.333,0,0,1,.254.616A33.022,33.022,0,0,1,95.355,151.062Z"/><path class="cls-1" d="M39.762,134.724a15.027,15.027,0,0,1-3.776-.467.333.333,0,0,1,.167-.645c5.148,1.329,10.5-.539,15.514-2.755q.708-.312,1.42-.633C57.613,128.2,62.3,126.1,67.279,126.2a.334.334,0,0,1,.327.34.328.328,0,0,1-.34.327c-4.836-.1-9.447,1.968-13.907,3.964q-.712.319-1.422.634C48.013,133.2,43.881,134.724,39.762,134.724Z"/><path class="cls-1" d="M39.8,127.636a15.811,15.811,0,0,1-3.486-.388.333.333,0,0,1,.147-.65,15.2,15.2,0,0,0,7.489-.206.334.334,0,0,1,.182.642A15.851,15.851,0,0,1,39.8,127.636Z"/><path class="cls-1" d="M54.1,123.4a.334.334,0,0,1-.129-.641,38.937,38.937,0,0,1,21.489-2.408.333.333,0,0,1,.271.386.338.338,0,0,1-.385.271,38.247,38.247,0,0,0-21.117,2.366A.345.345,0,0,1,54.1,123.4Z"/><path class="cls-1" d="M10.288,105.778a.333.333,0,0,1-.214-.077A40.865,40.865,0,0,1,.417,94.012.333.333,0,1,1,1,93.69a40.194,40.194,0,0,0,9.5,11.5.333.333,0,0,1-.213.589Z"/><path class="cls-1" d="M13.3,114.089a.33.33,0,0,1-.206-.071A42.554,42.554,0,0,1,.709,98.334a.333.333,0,1,1,.605-.278,41.906,41.906,0,0,0,12.194,15.438.333.333,0,0,1-.2.595Z"/><path class="cls-1" d="M13.923,109.321a.334.334,0,0,1-.255-.119l-1.827-2.172a.334.334,0,1,1,.511-.429l1.826,2.172a.333.333,0,0,1-.04.47A.337.337,0,0,1,13.923,109.321Z"/><path class="cls-1" d="M7.675,113.258a.338.338,0,0,1-.2-.064,15.271,15.271,0,0,1-5.028-6.308.334.334,0,0,1,.614-.263,14.589,14.589,0,0,0,4.808,6.032.334.334,0,0,1-.2.6Z"/></g></g></svg>