<svg xmlns="http://www.w3.org/2000/svg" viewBox="0 0 163.168 142.57"><defs><style>.cls-1{fill:#B7BD9A;}</style></defs><g id="Слой_2" data-name="Слой 2"><g id="OBJECTS"><path class="cls-1" d="M50.182,86.554A298.388,298.388,0,0,1,91.24,50.3c15.281-11.052,31.538-20.339,48.231-29.063.626-.327.072-1.274-.554-.947C105.963,37.47,74.286,57.751,49.333,85.705c-.511.573.312,1.412.849.849Z"/><path class="cls-1" d="M50.079,85.579c-7.031-3.792-14.2-.711-20.661,2.785-6.529,3.532-18.361,9.207-23.742.487-1.4-2.273-1.15-4.945-1.383-7.491a32.289,32.289,0,0,0-.982-5.181C2.067,71.405.634,66.876,1.8,61.91,4.029,52.384,12.644,46.5,20.878,42.428l-1.008-.579c.482,6.987,5.914,13.715,11.333,17.819,2.4,1.82,5.792,3.512,8.916,2.786,2.2-.513,3.248-2.037,2.518-4.255-1-3.034-4.64-5.262-6.929-7.21a26.13,26.13,0,0,1-7.971-11.427c-1.056-3.092-1.68-6.645.981-9.134a25.3,25.3,0,0,1,6.474-3.863,48.922,48.922,0,0,1,15.229-4.3l-.709-.71a20.453,20.453,0,0,0,8.08,16.821c1.556,1.174,5.153,3.807,7.3,2.7,2.505-1.286.751-5.052.142-6.886-1.508-4.542-3.061-9.073-4.526-13.629-1.766-5.5-1.41-10.274,3.671-13.706C72.128,1.624,83.9.136,92.772,2.558q-.165-.622-.329-1.245A21.961,21.961,0,0,0,92.4,32.83a.772.772,0,0,0,1.281-.338,87.809,87.809,0,0,1,4.841-18.338c1.029-2.551,2.444-5.312,4.776-6.92,2.961-2.041,6.661-1.389,9.891-.447,10.14,2.958,18.042,10.958,28.683,12.592.921.142,1.318-1.267.389-1.41-12.191-1.877-21.4-13.124-33.888-13.556-5.046-.175-8.4,3.146-10.464,7.455-3,6.256-4.48,13.435-5.706,20.217l1.281-.338A20.514,20.514,0,0,1,93.5,2.367a.752.752,0,0,0-.329-1.245C85.439-.983,77.285.073,69.786,2.643c-4.965,1.7-10.7,4.835-11.639,10.526-.608,3.669.951,7.324,2.083,10.732,1.438,4.328,3.177,8.658,4.347,13.065,1,3.766-3.1,2.081-4.864.942a19.031,19.031,0,0,1-8.582-16.356.712.712,0,0,0-.71-.709c-7.279.88-14.787,3.078-20.926,7.217-5.631,3.8-4.544,9.549-1.869,15.062a26.667,26.667,0,0,0,5.864,7.914c1.385,1.279,2.916,2.387,4.335,3.627a21.363,21.363,0,0,1,1.84,1.758q2.118,1.32.369,3.081.017,1.863-1.279,1.637c-1.856.682-5.019-1.361-6.439-2.377a27.7,27.7,0,0,1-4.36-4.072c-3.293-3.663-6.395-7.758-6.746-12.841A.68.68,0,0,0,20.2,41.27C12.182,45.235,4.214,50.719,1.11,59.528A21.151,21.151,0,0,0,.666,71.606c.595,2.579,1.487,5.09,1.954,7.7.451,2.518.18,5.134.78,7.619,1.574,6.526,9.179,8.761,15.114,7.636C29,92.573,38.192,81.055,49.436,86.68c.728.364,1.37-.709.643-1.1Z"/><path class="cls-1" d="M49.34,86.547c4.765,4.347-2.718,10.188-5.089,13.691a30.366,30.366,0,0,0-4.727,11.573,26.278,26.278,0,0,0,5.466,21.554c5.411,6.538,13.127,8.883,21.382,9.161A97.715,97.715,0,0,0,93.1,139.42c10.724-2.687,21.1-5.8,30.105-12.417.683-.5.314-1.7-.609-1.446-8.792,2.461-17-2.851-24.118-7.4-6.725-4.3-13.362-8.848-18.027-15.452l-.285,1.088c5.03-2.528,10.505-.385,15.3,1.674,4.616,1.984,9.2,4.041,13.811,6.044,3.9,1.694,7.782,3.2,12.1,3.183a51.562,51.562,0,0,0,12.644-2.145c14.825-3.9,26.856-19.63,22.215-35.251a.818.818,0,0,0-1.347-.356c-4.573,3.617-10.274,4.762-15.972,5.11a71.037,71.037,0,0,1-16.472-.637,30.094,30.094,0,0,1-7.92-2.453,22.092,22.092,0,0,1-2.757-1.575c-1.713-1.16-1.851-1.1-1.876-3.2-.024-2.062-.056-1.883,1.63-2.357,5.027-1.415,10.338-2.068,15.451-3.116,9.557-1.96,19.285-4.479,27.5-9.963,6.436-4.3,12.289-11.881,6.02-18.971-2.882-3.26-6.831-5.489-10.174-8.23-3.663-3-8.615-7.4-7.5-12.669.207-.977-1.294-1.394-1.5-.414-1.6,7.609,6.6,13.317,11.884,17.209,5.161,3.8,11.276,8.6,7.027,15.568-3.379,5.537-10.535,8.953-16.36,11.225A103.661,103.661,0,0,1,127.1,67.12c-5.48,1.134-11.458,1.595-16.761,3.389-3.027,1.024-4.1,3.7-1.875,6.23,3.226,3.662,8.924,5.389,13.552,6.219a70.935,70.935,0,0,0,18.485.582c5.644-.492,11.019-1.9,15.523-5.457l-1.347-.356c2.676,9.021-.683,18.032-6.833,24.779-5.889,6.463-13.541,8.859-21.975,10.2-9.857,1.563-18.564-3.761-27.31-7.583-6.025-2.633-12.772-5.9-19.2-2.7a.8.8,0,0,0-.286,1.089c5.024,7.147,12.224,12.009,19.5,16.621s15.561,9.448,24.436,6.953l-.609-1.446c-9.669,7.122-21.418,10.552-33.045,13.072a105.174,105.174,0,0,1-16.939,2.168c-6.215.316-13.029.245-18.728-2.557-10.566-5.195-15.109-17.641-12.039-28.7,1.61-5.8,5.095-9.512,8.554-14.195,2.175-2.946,3.212-7.128-.038-9.711-.58-.462-1.409.311-.835.835Z"/><path class="cls-1" d="M107.807,38.144a.333.333,0,0,1-.328-.275A33.412,33.412,0,0,1,111.1,15.991a.334.334,0,0,1,.585.322,32.739,32.739,0,0,0-3.545,21.44.332.332,0,0,1-.27.386A.284.284,0,0,1,107.807,38.144Z"/><path class="cls-1" d="M135.657,47.17a52.975,52.975,0,0,1-27.976-7.993.334.334,0,0,1,.353-.566,52.289,52.289,0,0,0,34.016,7.5.334.334,0,0,1,.082.662A52.459,52.459,0,0,1,135.657,47.17Z"/><path class="cls-1" d="M86.543,53.31a.335.335,0,0,1-.285-.16c-4.123-6.744-8.341-13.917-10.652-20.945-1.862-5.663-3.411-14.118-.212-22.235a.333.333,0,0,1,.62.244c-3.126,7.932-1.6,16.224.225,21.783,2.288,6.96,6.486,14.094,10.588,20.806a.333.333,0,0,1-.284.507Z"/><path class="cls-1" d="M69.991,65.632a.344.344,0,0,1-.121-.022A48.6,48.6,0,0,1,41.554,35.663a.333.333,0,1,1,.634-.207A47.925,47.925,0,0,0,70.112,64.989a.333.333,0,0,1-.121.643Z"/><path class="cls-1" d="M125.806,96.141A66.536,66.536,0,0,1,70.168,66.1a.333.333,0,0,1,.557-.366,65.875,65.875,0,0,0,60.7,29.5.333.333,0,0,1,.058.664Q128.645,96.143,125.806,96.141Z"/><path class="cls-1" d="M105.837,60.52a30.839,30.839,0,0,1-19.506-7,.333.333,0,0,1,.424-.514,30.113,30.113,0,0,0,21.08,6.775.338.338,0,0,1,.355.309.334.334,0,0,1-.31.356Q106.86,60.521,105.837,60.52Z"/><path class="cls-1" d="M71.762,126.984a.325.325,0,0,1-.044,0c-5.139-.676-8.66-5.283-9.871-9.55-1.355-4.778-.6-9.845.314-14.172.211-.991.436-1.982.662-2.973a53.341,53.341,0,0,0,1.7-10.894c.082-5.289-1.651-9.867-4.754-12.561a.333.333,0,1,1,.438-.5c3.251,2.822,5.067,7.588,4.982,13.074a53.823,53.823,0,0,1-1.72,11.033c-.225.987-.45,1.974-.659,2.962-.9,4.247-1.641,9.213-.325,13.852,1.151,4.057,4.478,8.434,9.316,9.071a.333.333,0,0,1-.043.664Z"/><path class="cls-1" d="M28.907,74.668a22.751,22.751,0,0,1-8.774-1.526A17.387,17.387,0,0,1,9.76,59.2a.332.332,0,0,1,.3-.365.337.337,0,0,1,.366.3,16.7,16.7,0,0,0,9.966,13.392C24.919,74.4,30.1,74.151,35.022,73.6c.644-.072,1.29-.149,1.936-.225,4.31-.512,8.767-1.04,13.1-.251a.333.333,0,0,1-.12.656c-4.232-.771-8.637-.249-12.9.257q-.972.115-1.941.226A55.68,55.68,0,0,1,28.907,74.668Z"/><path class="cls-1" d="M108.484,134.817h0A34.2,34.2,0,0,1,83.75,123.9a.334.334,0,0,1,.492-.451,33.515,33.515,0,0,0,24.242,10.7.334.334,0,0,1,0,.667Z"/><path class="cls-1" d="M94.992,128.743a.335.335,0,0,1-.153-.037,32.757,32.757,0,0,1-6.2-4.147.333.333,0,1,1,.431-.508,32.1,32.1,0,0,0,6.074,4.063.333.333,0,0,1-.152.629Z"/><path class="cls-1" d="M110.36,133.38l-.032,0a40.11,40.11,0,0,1-12.482-3.266.333.333,0,1,1,.269-.609,39.448,39.448,0,0,0,12.276,3.211.334.334,0,0,1-.031.666Z"/><path class="cls-1" d="M114.09,131.52a.289.289,0,0,1-.05,0,28.938,28.938,0,0,1-7.554-2.191.333.333,0,0,1,.271-.609,28.317,28.317,0,0,0,7.381,2.141.333.333,0,0,1-.048.663Z"/><path class="cls-1" d="M100.725,137.181a.366.366,0,0,1-.065-.006,22.081,22.081,0,0,1-7.333-2.871.333.333,0,0,1,.349-.567,21.4,21.4,0,0,0,7.113,2.783.334.334,0,0,1-.064.661Z"/><path class="cls-1" d="M94.344,138.07a.344.344,0,0,1-.077-.009,11.557,11.557,0,0,1-4.092-1.884.333.333,0,0,1,.392-.539,10.889,10.889,0,0,0,3.855,1.774.334.334,0,0,1-.078.658Z"/><path class="cls-1" d="M67.04,96.363a.323.323,0,0,1-.091-.013.334.334,0,0,1-.23-.412A21.811,21.811,0,0,0,61.49,75.16a.333.333,0,1,1,.479-.463A22.492,22.492,0,0,1,67.361,96.12.333.333,0,0,1,67.04,96.363Z"/><path class="cls-1" d="M64.051,108.252h-.029a.333.333,0,0,1-.3-.361,18.132,18.132,0,0,1,2.428-7.591.333.333,0,1,1,.574.338,17.454,17.454,0,0,0-2.338,7.31A.334.334,0,0,1,64.051,108.252Z"/><path class="cls-1" d="M60.216,97.512a.322.322,0,0,1-.106-.017.334.334,0,0,1-.211-.421,29.38,29.38,0,0,0,1.77-8.1,11.42,11.42,0,0,0-2.264-7.667.333.333,0,1,1,.517-.421A12.085,12.085,0,0,1,62.335,89a29.953,29.953,0,0,1-1.8,8.282A.334.334,0,0,1,60.216,97.512Z"/><path class="cls-1" d="M69.567,142.562a.344.344,0,0,1-.077-.009,27.418,27.418,0,0,1-21.049-24.742.333.333,0,0,1,.309-.356.345.345,0,0,1,.356.308A26.751,26.751,0,0,0,69.644,141.9a.334.334,0,0,1-.077.658Z"/><path class="cls-1" d="M60.185,141.045a.314.314,0,0,1-.1-.014,15.506,15.506,0,0,1-9.266-7.84.334.334,0,1,1,.6-.3,14.826,14.826,0,0,0,8.86,7.5.333.333,0,0,1-.1.652Z"/><path class="cls-1" d="M91.5,82.5a.336.336,0,0,1-.123-.024A30.91,30.91,0,0,1,80.81,75.063a92.091,92.091,0,0,1-8.089-10.051.334.334,0,0,1,.539-.393A91.449,91.449,0,0,0,81.288,74.6,30.272,30.272,0,0,0,91.622,81.86a.333.333,0,0,1-.123.643Z"/><path class="cls-1" d="M68.066,78.906a.335.335,0,0,1-.292-.173A25.587,25.587,0,0,0,63.381,72.9a.333.333,0,0,1,.47-.473,26.316,26.316,0,0,1,4.508,5.98.335.335,0,0,1-.293.5Z"/><path class="cls-1" d="M77.16,80.105a.33.33,0,0,1-.2-.068,26.718,26.718,0,0,1-8.649-11.419.333.333,0,0,1,.62-.245,26.063,26.063,0,0,0,8.432,11.134.333.333,0,0,1-.2.6Z"/><path class="cls-1" d="M85.538,86.758a.329.329,0,0,1-.163-.043,20.34,20.34,0,0,1-5.234-4.222.333.333,0,0,1,.5-.443A19.671,19.671,0,0,0,85.7,86.134a.333.333,0,0,1-.164.624Z"/><path class="cls-1" d="M82.385,71.271a.336.336,0,0,1-.2-.063,17.772,17.772,0,0,1-5.112-5.753.333.333,0,0,1,.583-.324,17.1,17.1,0,0,0,4.918,5.536.333.333,0,0,1-.194.6Z"/><path class="cls-1" d="M72.072,64.224a.33.33,0,0,1-.127-.025A30.376,30.376,0,0,1,61.75,57.275a.333.333,0,1,1,.479-.463,29.735,29.735,0,0,0,9.97,6.771.333.333,0,0,1-.127.641Z"/><path class="cls-1" d="M47.836,52.9a.333.333,0,0,1-.275-.145l-2.539-3.724a.333.333,0,1,1,.55-.375l2.539,3.723a.334.334,0,0,1-.275.521Z"/><path class="cls-1" d="M63.205,65.7a.323.323,0,0,1-.129-.026A33.634,33.634,0,0,1,49.514,55.219a.333.333,0,0,1,.528-.407A32.956,32.956,0,0,0,63.335,65.061a.334.334,0,0,1-.13.641Z"/><path class="cls-1" d="M72.78,35.089a.333.333,0,0,1-.327-.272l-.745-3.985a.333.333,0,1,1,.655-.122l.745,3.985a.333.333,0,0,1-.266.389A.324.324,0,0,1,72.78,35.089Z"/><path class="cls-1" d="M59.307,54.889a.335.335,0,0,1-.22-.083l-2.31-2.026a.333.333,0,1,1,.44-.5l2.31,2.026a.334.334,0,0,1-.22.584Z"/><path class="cls-1" d="M60.776,74.184a.329.329,0,0,1-.165-.044A29.5,29.5,0,0,0,39.084,71.2a.333.333,0,1,1-.161-.647,30.15,30.15,0,0,1,22.018,3.01.333.333,0,0,1-.165.623Z"/><path class="cls-1" d="M57.124,78.6a.328.328,0,0,1-.154-.038A17.525,17.525,0,0,0,47.753,76.6a.328.328,0,0,1-.353-.312.332.332,0,0,1,.312-.353,18.2,18.2,0,0,1,9.567,2.037.333.333,0,0,1-.155.629Z"/><path class="cls-1" d="M54.322,80.973a.342.342,0,0,1-.129-.026l-4.043-1.7a.333.333,0,0,1,.258-.614l4.043,1.7a.334.334,0,0,1-.129.641Z"/><path class="cls-1" d="M16.144,62.454a.332.332,0,0,1-.261-.126A18.367,18.367,0,0,1,12.564,46.5a.334.334,0,0,1,.645.17,17.688,17.688,0,0,0,3.2,15.239.333.333,0,0,1-.261.541Z"/><path class="cls-1" d="M15.727,52.887a.334.334,0,0,1-.288-.165,9.89,9.89,0,0,1-1.074-7.262.334.334,0,0,1,.649.156,9.212,9.212,0,0,0,1,6.769.334.334,0,0,1-.287.5Z"/><path class="cls-1" d="M26.348,76.888A17.938,17.938,0,0,1,13.42,71.346a.333.333,0,0,1,.484-.458,17.481,17.481,0,0,0,13.8,5.278.333.333,0,1,1,.055.664C27.288,76.869,26.817,76.888,26.348,76.888Z"/><path class="cls-1" d="M37.48,39.635a.335.335,0,0,1-.282-.155,28,28,0,0,1-4.243-12.765.332.332,0,0,1,.306-.358.336.336,0,0,1,.358.306,27.337,27.337,0,0,0,4.143,12.46.334.334,0,0,1-.282.512Z"/><path class="cls-1" d="M32.23,33.134a.333.333,0,0,1-.313-.218,19.191,19.191,0,0,1-1.134-5.09.333.333,0,1,1,.664-.055,18.579,18.579,0,0,0,1.1,4.914.333.333,0,0,1-.2.428A.343.343,0,0,1,32.23,33.134Z"/><path class="cls-1" d="M84.38,54.357a.332.332,0,0,1-.24-.1,45.159,45.159,0,0,1-9.575-15.142.334.334,0,1,1,.624-.236A44.453,44.453,0,0,0,84.62,53.793a.333.333,0,0,1-.24.564Z"/><path class="cls-1" d="M81.584,55.3a.336.336,0,0,1-.186-.057A13.06,13.06,0,0,1,76.453,48.9a.333.333,0,1,1,.626-.227,12.4,12.4,0,0,0,4.691,6.011.333.333,0,0,1-.186.61Z"/><path class="cls-1" d="M96.476,61.689a.339.339,0,0,1-.055,0,21.35,21.35,0,0,1-9.937-4.452.334.334,0,0,1,.42-.519,20.662,20.662,0,0,0,9.625,4.313.333.333,0,0,1-.053.662Z"/><path class="cls-1" d="M97.129,56.406a.314.314,0,0,1-.061,0A14.4,14.4,0,0,1,88.7,51.535a.333.333,0,1,1,.509-.429,13.934,13.934,0,0,0,7.976,4.639.333.333,0,0,1-.06.661Z"/><path class="cls-1" d="M82.244,39.665a.335.335,0,0,1-.28-.151,31.932,31.932,0,0,1-5.125-18.986.317.317,0,0,1,.349-.315.333.333,0,0,1,.316.35,31.258,31.258,0,0,0,5.019,18.586.334.334,0,0,1-.1.461A.329.329,0,0,1,82.244,39.665Z"/><path class="cls-1" d="M85.734,46.132a.334.334,0,0,1-.255-.119,12.407,12.407,0,0,1-2.313-4.24.334.334,0,1,1,.637-.2,11.709,11.709,0,0,0,2.187,4.01.333.333,0,0,1-.256.547Z"/><path class="cls-1" d="M105.271,40.371a.333.333,0,0,1-.319-.236,24.913,24.913,0,0,1,.4-15.724.334.334,0,0,1,.627.228,24.24,24.24,0,0,0-.392,15.3.335.335,0,0,1-.221.416A.307.307,0,0,1,105.271,40.371Z"/><path class="cls-1" d="M101.308,37.494a.335.335,0,0,1-.328-.274,21.54,21.54,0,0,1-.112-6.975.334.334,0,0,1,.66.1,20.859,20.859,0,0,0,.109,6.759.335.335,0,0,1-.269.388A.4.4,0,0,1,101.308,37.494Z"/><path class="cls-1" d="M110.869,24.135a.325.325,0,0,1-.11-.018.334.334,0,0,1-.206-.424l1.129-3.249a.334.334,0,0,1,.631.219l-1.129,3.248A.334.334,0,0,1,110.869,24.135Z"/><path class="cls-1" d="M110.577,33.383a.333.333,0,0,1-.333-.319,28.892,28.892,0,0,1,.545-6.955.334.334,0,0,1,.654.132,28.232,28.232,0,0,0-.533,6.8.333.333,0,0,1-.319.347Z"/><path class="cls-1" d="M116.457,46a.316.316,0,0,1-.074-.008A27.489,27.489,0,0,1,105.239,40.6a.334.334,0,0,1,.419-.519,26.819,26.819,0,0,0,10.873,5.26.333.333,0,0,1-.074.658Z"/><path class="cls-1" d="M107.829,45.615a.346.346,0,0,1-.089-.012,12.212,12.212,0,0,1-5.2-2.976.334.334,0,0,1,.464-.48,11.527,11.527,0,0,0,4.917,2.813.334.334,0,0,1-.09.655Z"/><path class="cls-1" d="M124.011,42.5a6.436,6.436,0,0,1-1.961-.4,83.373,83.373,0,0,1-9.144-3.619.333.333,0,1,1,.282-.6,82.62,82.62,0,0,0,9.07,3.589,3.556,3.556,0,0,0,2.687.152.333.333,0,1,1,.313.588A2.6,2.6,0,0,1,124.011,42.5Z"/><path class="cls-1" d="M124.708,29.163a.332.332,0,0,1-.326-.266,16.066,16.066,0,0,1,.709-8.825.334.334,0,0,1,.624.237,15.378,15.378,0,0,0-.68,8.454.333.333,0,0,1-.26.393A.305.305,0,0,1,124.708,29.163Z"/><path class="cls-1" d="M127.079,27.492a.335.335,0,0,1-.324-.252,10.981,10.981,0,0,1-.213-4.349.344.344,0,0,1,.366-.3.333.333,0,0,1,.3.366,10.267,10.267,0,0,0,.2,4.117.333.333,0,0,1-.242.4A.327.327,0,0,1,127.079,27.492Z"/><path class="cls-1" d="M66.984,18.007a.334.334,0,0,1-.332-.3,27.083,27.083,0,0,1,2.4-13.982.333.333,0,1,1,.6.281,26.422,26.422,0,0,0-2.341,13.638.334.334,0,0,1-.3.364Z"/><path class="cls-1" d="M64.83,10.256h-.014a.334.334,0,0,1-.319-.348A14.479,14.479,0,0,1,65.56,5.051a.333.333,0,0,1,.617.252,13.823,13.823,0,0,0-1.014,4.634A.333.333,0,0,1,64.83,10.256Z"/><path class="cls-1" d="M136.4,59.606a46.314,46.314,0,0,1-11.476-1.435.333.333,0,0,1,.166-.646A46.42,46.42,0,0,0,159.2,52.979a.334.334,0,0,1,.328.581A47.062,47.062,0,0,1,136.4,59.606Z"/><path class="cls-1" d="M135.668,62.137q-.344,0-.687,0a.334.334,0,0,1,0-.667h0a51.931,51.931,0,0,0,18.941-3.309.333.333,0,1,1,.234.624A52.482,52.482,0,0,1,135.668,62.137Z"/><path class="cls-1" d="M131.236,62.077h-.01l-2.876-.092a.332.332,0,0,1-.323-.343.339.339,0,0,1,.343-.323l2.877.092a.333.333,0,0,1-.011.666Z"/><path class="cls-1" d="M150.733,54.753a.334.334,0,0,1-.047-.664,19.482,19.482,0,0,0,10.565-5.16.333.333,0,0,1,.461.482,20.169,20.169,0,0,1-10.93,5.338A.27.27,0,0,1,150.733,54.753Z"/><path class="cls-1" d="M110.607,96.793h-.031a21.479,21.479,0,0,1-5.812-1.373.333.333,0,1,1,.242-.621,20.833,20.833,0,0,0,5.631,1.33.333.333,0,0,1-.03.665Z"/><path class="cls-1" d="M132.218,105.513a44.591,44.591,0,0,1-6.925-.542.334.334,0,0,1,.1-.659,43.87,43.87,0,0,0,13.153.075.333.333,0,1,1,.1.659A44.561,44.561,0,0,1,132.218,105.513Z"/><path class="cls-1" d="M141.734,104.783a.334.334,0,0,1,0-.667,19.8,19.8,0,0,0,7.127-1.385.334.334,0,1,1,.245.621,20.475,20.475,0,0,1-7.367,1.431Z"/><path class="cls-1" d="M136.16,101.786q-.657,0-1.311-.021a.334.334,0,0,1-.323-.343.321.321,0,0,1,.344-.323,42.223,42.223,0,0,0,16.5-2.835.333.333,0,1,1,.242.621A42.825,42.825,0,0,1,136.16,101.786Z"/><path class="cls-1" d="M140.8,89.4q-.292,0-.586-.015a.333.333,0,0,1-.315-.351.34.34,0,0,1,.35-.315,10.361,10.361,0,0,0,3.389-.379.333.333,0,0,1,.181.641A11.061,11.061,0,0,1,140.8,89.4Z"/><path class="cls-1" d="M145.866,88.668a.333.333,0,0,1-.063-.66,27.011,27.011,0,0,0,10.3-4.4.333.333,0,0,1,.384.545,27.694,27.694,0,0,1-10.556,4.506A.347.347,0,0,1,145.866,88.668Z"/><path class="cls-1" d="M150.231,89.992a.333.333,0,0,1-.064-.66,17.446,17.446,0,0,0,6.155-2.529.333.333,0,1,1,.367.556,18.1,18.1,0,0,1-6.392,2.627A.3.3,0,0,1,150.231,89.992Z"/><path class="cls-1" d="M83.576,7a.279.279,0,0,1-.07-.008.333.333,0,0,1-.257-.395A10.2,10.2,0,0,1,86.834.826a.334.334,0,0,1,.414.523A9.505,9.505,0,0,0,83.9,6.736.334.334,0,0,1,83.576,7Z"/><path class="cls-1" d="M82.468,11.255a.242.242,0,0,1-.038,0,.334.334,0,0,1-.294-.369l.253-2.249a.333.333,0,1,1,.662.074l-.252,2.25A.334.334,0,0,1,82.468,11.255Z"/></g></g></svg>