<svg id="Слой_1" data-name="Слой 1" xmlns="http://www.w3.org/2000/svg" viewBox="0 0 197.033 212.713"><defs><style>.cls-1{fill:#B7BD9A;}</style></defs><g id="Слой_2" data-name="Слой 2"><g id="OBJECTS"><path class="cls-1" d="M34.047,211.3A116.048,116.048,0,0,1,36.8,170.766,155.308,155.308,0,0,1,52.2,133.5a323.975,323.975,0,0,1,21.186-32.387,236.2,236.2,0,0,1,26.25-30.722,180.427,180.427,0,0,1,33.747-25.81.671.671,0,0,0-.676-1.158C110.324,56.637,91.589,74.681,75.974,95.36c-16.347,21.65-31.937,45.165-39.46,71.5-4.081,14.284-6.066,29.843-3.167,44.539.076.389.739.307.7-.095Z" transform="translate(-0.005 0)"/><path class="cls-1" d="M133.624,43.842c-2.3-5.488.563-10.778,1.16-16.295a19.348,19.348,0,0,0-2.738-11.994c-5.043-8.478-14.609-12.4-23.9-14.145C88.177-2.346,66.223,1.181,50.5,14.7A51.855,51.855,0,0,0,34.022,40.58a.785.785,0,0,0,.958.958c14.411-5.119,30.118-9.832,45.354-5.42a36.972,36.972,0,0,1,5.585,2.1c1.187.563,3.663,1.41,4.26,2.662,1.669,3.5-4.725,3.4-6.127,3.5-1.8.142-3.6.252-5.4.352-6.681.371-13.377.539-20.041,1.166C46.2,47.068,33.9,50.125,24.375,58.612,14.7,67.23,8.011,79.451,4.1,91.678A85.647,85.647,0,0,0,1.866,135.6a.807.807,0,0,0,1.545,0c3.246-13.165,12.732-23.249,22.766-31.826,5.058-4.325,10.4-9.408,16.392-12.359A12.463,12.463,0,0,1,45.431,90.3c4.758.366,3.112,2.581,1.955,4.255a38.771,38.771,0,0,1-2.973,3.575c-2.046,2.3-4.206,4.5-6.407,6.662-8.337,8.173-17.652,15.836-23.671,26.006-6.6,11.147-6.969,23.888-3.384,36.134,4.743,16.2,15.094,30.009,21.915,45.309.393.881,1.682.118,1.3-.757-6.861-15.54-17.447-29.589-21.98-46.111-2.194-8-2.867-16.521-.508-24.561,1.906-6.5,5.628-12.247,9.984-17.367C30.023,113.617,41.32,106,48.72,95.377c2.684-3.851,1.552-8-3.693-6.561-6.2,1.7-11.476,6.9-16.34,10.869-11.649,9.51-22.884,20.5-26.816,35.49h1.54a85.656,85.656,0,0,1,2.654-44.1c4.747-14.171,13.492-29.033,26.85-36.556,12.676-7.137,27.8-7.272,41.939-7.961,3.427-.167,6.853-.358,10.271-.666,1.941-.174,5.424.116,6.865-1.492,3.71-4.137-6.148-8.017-8.576-8.911-16.111-5.925-33.388-.934-48.848,4.544l.958.957C40.38,22.746,55.683,9.308,73.528,4.2a74.131,74.131,0,0,1,30.409-1.9c9.817,1.35,20.519,4.462,26.3,13.169,3.337,5.029,3.649,10.343,2.313,16.1C131.515,36,130.508,40,132.527,44.305c.285.607,1.36.167,1.1-.463Z" transform="translate(-0.005 0)"/><path class="cls-1" d="M132.873,44.626c9.53,3.707,19.6-1.433,29.149-2.62,10.552-1.31,21.3.878,27.009,10.7,5.1,8.786,6.331,20.682,6.116,30.648-.247,11.462-4.729,22.4-10.309,32.258a108.8,108.8,0,0,1-22.379,27.606l1.457.385A96.119,96.119,0,0,0,134.5,87.41a.868.868,0,0,0-1.189,0c-6.056,4.692-.924,15.373,1.324,20.762,3.651,8.752,8.5,17.164,10.341,26.558,1.748,8.927.772,19.027-6.314,25.466-5.621,5.108-13.3,7.077-20.308,9.5-6.934,2.4-13.815,5.343-18.2,11.506l1.58.428A65.648,65.648,0,0,0,81.7,131.005a.864.864,0,0,0-1.222.02.879.879,0,0,0-.118.153c-4.34,7.173-4.328,15.571-3.118,23.628,1.34,8.924,6.718,23.254-1.052,30.632-3.154,3-7.5,4.281-11.526,5.619a80.841,80.841,0,0,0-11,4.474A73.094,73.094,0,0,0,32.92,211.264c-.731.793.448,1.979,1.187,1.187a72.859,72.859,0,0,1,22.372-16.392c6.89-3.224,16.233-4.208,21.565-10.078,5.687-6.26,3.641-15.94,2.292-23.426-1.829-10.144-4.182-21.124,1.5-30.516l-1.339.173a63.652,63.652,0,0,1,19.533,49.421c-.053.917,1.132,1.048,1.58.428,6.421-8.879,18.131-10.545,27.66-14.412,9.488-3.851,16.563-10.421,17.913-21,1.568-12.277-3.993-23.483-8.915-34.327a106.952,106.952,0,0,1-4.283-10.56c-1.029-3.108-2.36-6.88-1.518-10.183.125-.487.764-2.2,1.623-2.249.367-.02,1.6,1.563,1.912,1.874q1.693,1.713,3.3,3.508a90.969,90.969,0,0,1,6.549,8.179,93.536,93.536,0,0,1,16.384,41.177c.1.7,1.025.766,1.457.384A109.146,109.146,0,0,0,185,118.958c5.8-9.657,10.674-20.523,11.741-31.844.948-10.063-.348-21.928-4.257-31.333-3.7-8.891-10.9-14.621-20.552-15.647a52.605,52.605,0,0,0-17.093,1.5c-7.115,1.615-14.392,4.287-21.62,1.744-.794-.279-1.107.951-.344,1.248Z" transform="translate(-0.005 0)"/><path class="cls-1" d="M115.259,146.449h0a.334.334,0,0,1-.333-.333c.029-23.9-8.319-48.182-23.5-68.368a.333.333,0,0,1,.518-.418l.014.018c15.274,20.3,23.669,44.725,23.64,68.77a.334.334,0,0,1-.337.331Z" transform="translate(-0.005 0)"/><path class="cls-1" d="M21.436,85.64a.333.333,0,0,1-.335-.331.337.337,0,0,1,.11-.249A60.668,60.668,0,0,1,91.39,76.8a.334.334,0,0,1-.323.584,60,60,0,0,0-69.406,8.165A.336.336,0,0,1,21.436,85.64Z" transform="translate(-0.005 0)"/><path class="cls-1" d="M57.073,173.792a.3.3,0,0,1-.084-.011.332.332,0,0,1-.238-.406h0a68.6,68.6,0,0,0-3.372-44.362.333.333,0,1,1,.612-.264,69.269,69.269,0,0,1,3.405,44.8A.333.333,0,0,1,57.073,173.792Z" transform="translate(-0.005 0)"/><path class="cls-1" d="M24.677,161.617a.306.306,0,0,1-.09-.013.333.333,0,0,1-.231-.412A50.676,50.676,0,0,1,53.106,128.6a.334.334,0,0,1,.261.614A50,50,0,0,0,25,161.374.333.333,0,0,1,24.677,161.617Z" transform="translate(-0.005 0)"/><path class="cls-1" d="M174.056,93.613a.334.334,0,0,1-.323-.251A48.27,48.27,0,0,0,151.565,63.8c-11.757-6.921-26.25-9.316-37.821-6.253a.333.333,0,0,1-.171-.644h0C125.31,53.79,140,56.212,151.9,63.22A48.943,48.943,0,0,1,174.379,93.2a.331.331,0,0,1-.238.4.305.305,0,0,1-.085.011Z" transform="translate(-0.005 0)"/><path class="cls-1" d="M113.659,57.553h-.019a.334.334,0,0,1-.314-.351c.577-10.472-3.835-22.444-10.729-29.115a35.688,35.688,0,0,0-27.59-9.777.333.333,0,0,1-.059-.664,36.353,36.353,0,0,1,28.112,9.962c7.023,6.795,11.518,18.98,10.931,29.63A.333.333,0,0,1,113.659,57.553Z" transform="translate(-0.005 0)"/><path class="cls-1" d="M110.875,108.976a.334.334,0,0,1-.321-.242,97.659,97.659,0,0,0-9.219-21.709.333.333,0,0,1,.578-.332A98.388,98.388,0,0,1,111.2,108.55a.334.334,0,0,1-.228.413A.354.354,0,0,1,110.875,108.976Z" transform="translate(-0.005 0)"/><path class="cls-1" d="M114.318,116.61a.333.333,0,0,1-.316-.227l-1.17-3.5a.334.334,0,0,1,.633-.211l1.169,3.5a.333.333,0,0,1-.209.422h0A.317.317,0,0,1,114.318,116.61Z" transform="translate(-0.005 0)"/><path class="cls-1" d="M96.561,93.541a.332.332,0,0,1-.311-.213,60.687,60.687,0,0,0-7.029-13.156.334.334,0,0,1,.546-.384,61.368,61.368,0,0,1,7.105,13.3.334.334,0,0,1-.19.431h0A.327.327,0,0,1,96.561,93.541Z" transform="translate(-0.005 0)"/><path class="cls-1" d="M89.134,88.282a.333.333,0,0,1-.313-.22,16.443,16.443,0,0,0-2.287-4.247.334.334,0,1,1,.534-.4,17.146,17.146,0,0,1,2.38,4.42.331.331,0,0,1-.2.425h0A.316.316,0,0,1,89.134,88.282Z" transform="translate(-0.005 0)"/><path class="cls-1" d="M105.941,84.208a.336.336,0,0,1-.3-.189,53.787,53.787,0,0,0-7.9-12.041.333.333,0,0,1,.5-.437,54.514,54.514,0,0,1,8,12.19.332.332,0,0,1-.3.477Z" transform="translate(-0.005 0)"/><path class="cls-1" d="M103.155,73.433a.334.334,0,0,1-.263-.129l-2.836-3.665a.333.333,0,1,1,.527-.408l2.836,3.665a.334.334,0,0,1-.062.468A.329.329,0,0,1,103.155,73.433Z" transform="translate(-0.005 0)"/><path class="cls-1" d="M40.817,77.485a.333.333,0,0,1-.133-.639,54.556,54.556,0,0,1,40.575-1.061.333.333,0,1,1-.235.624A53.878,53.878,0,0,0,40.95,77.457.321.321,0,0,1,40.817,77.485Z" transform="translate(-0.005 0)"/><path class="cls-1" d="M94.077,75.234a.334.334,0,0,1-.195-.063,44.286,44.286,0,0,0-22.615-8.28.333.333,0,1,1,.043-.665h.008a44.932,44.932,0,0,1,22.954,8.4.333.333,0,0,1-.2.6Z" transform="translate(-0.005 0)"/><path class="cls-1" d="M57.786,66.669a.333.333,0,0,1-.044-.664l8.175-1.1a.333.333,0,1,1,.089.661l-8.175,1.1Z" transform="translate(-0.005 0)"/><path class="cls-1" d="M28.53,144.882a.334.334,0,0,1-.282-.513,46.925,46.925,0,0,1,12.01-12.711.333.333,0,1,1,.389.541,46.226,46.226,0,0,0-11.836,12.529A.333.333,0,0,1,28.53,144.882Z" transform="translate(-0.005 0)"/><path class="cls-1" d="M43.991,129.322a.333.333,0,0,1-.17-.62,26.407,26.407,0,0,1,11.286-3.595.334.334,0,0,1,.054.665,25.752,25.752,0,0,0-11,3.5A.33.33,0,0,1,43.991,129.322Z" transform="translate(-0.005 0)"/><path class="cls-1" d="M37.3,144.948a.33.33,0,0,1-.277-.511,21.755,21.755,0,0,1,8.959-7.987.333.333,0,0,1,.287.6,21.075,21.075,0,0,0-8.681,7.739A.334.334,0,0,1,37.3,144.948Z" transform="translate(-0.005 0)"/><path class="cls-1" d="M54.116,149.439H54.1a.332.332,0,0,1-.314-.349v0a33.963,33.963,0,0,0-2.758-15.352.333.333,0,1,1,.611-.266,34.632,34.632,0,0,1,2.812,15.655A.334.334,0,0,1,54.116,149.439Z" transform="translate(-0.005 0)"/><path class="cls-1" d="M63.171,155.781h0a.332.332,0,0,1-.33-.334v0A60.293,60.293,0,0,0,57.754,130.8a.333.333,0,1,1,.61-.269h0a60.959,60.959,0,0,1,5.14,24.917.332.332,0,0,1-.331.333Z" transform="translate(-0.005 0)"/><path class="cls-1" d="M63.134,163.949a.332.332,0,0,1-.332-.318l-.167-3.667a.333.333,0,0,1,.317-.348h0a.313.313,0,0,1,.347.318l.167,3.667a.334.334,0,0,1-.317.348h-.016Z" transform="translate(-0.005 0)"/><path class="cls-1" d="M44.194,168.3a.334.334,0,0,1-.329-.289,43.3,43.3,0,0,1-.127-6.3,49.919,49.919,0,0,0-.6-11.21.333.333,0,1,1,.652-.136,50.329,50.329,0,0,1,.61,11.362,43.061,43.061,0,0,0,.121,6.2.334.334,0,0,1-.285.376A.3.3,0,0,1,44.194,168.3Z" transform="translate(-0.005 0)"/><path class="cls-1" d="M42.03,162.116a.335.335,0,0,1-.322-.249,24.157,24.157,0,0,1-.2-4.032,25.51,25.51,0,0,0-.181-3.868.333.333,0,1,1,.638-.192l.006.024a24.145,24.145,0,0,1,.2,4.031,25.128,25.128,0,0,0,.181,3.868.335.335,0,0,1-.322.418Z" transform="translate(-0.005 0)"/><path class="cls-1" d="M46.571,200.736a.349.349,0,0,1-.065-.006.333.333,0,0,1-.262-.391h0l3.282-16.444a.333.333,0,1,1,.654.131L46.9,200.469A.332.332,0,0,1,46.571,200.736Z" transform="translate(-0.005 0)"/><path class="cls-1" d="M50.441,197.953a.332.332,0,0,1-.329-.285,13.938,13.938,0,0,1,.716-6.832.333.333,0,0,1,.625.231,13.279,13.279,0,0,0-.681,6.5.333.333,0,0,1-.281.378h0A.264.264,0,0,1,50.441,197.953Z" transform="translate(-0.005 0)"/><path class="cls-1" d="M12.748,170.781h0a.333.333,0,0,1-.332-.334h0A45.707,45.707,0,0,1,20.2,145.266a.333.333,0,1,1,.552.374h0a45.033,45.033,0,0,0-7.669,24.809.333.333,0,0,1-.334.332Z" transform="translate(-0.005 0)"/><path class="cls-1" d="M26.865,199.3a.334.334,0,0,1-.326-.265,59,59,0,0,1,.438-25.835.333.333,0,0,1,.647.158,58.318,58.318,0,0,0-.432,25.541.334.334,0,0,1-.253.4h-.006A.386.386,0,0,1,26.865,199.3Z" transform="translate(-0.005 0)"/><path class="cls-1" d="M23.235,191.469a.333.333,0,0,1-.319-.238,18.846,18.846,0,0,1-.433-9.011.333.333,0,1,1,.654.129,18.167,18.167,0,0,0,.418,8.691.333.333,0,0,1-.223.415h0A.348.348,0,0,1,23.235,191.469Z" transform="translate(-0.005 0)"/><path class="cls-1" d="M16.473,163.446h-.007a.333.333,0,0,1-.326-.339,18.888,18.888,0,0,1,2.71-9.4.333.333,0,0,1,.579.329l-.009.015a18.237,18.237,0,0,0-2.614,9.064A.333.333,0,0,1,16.473,163.446Z" transform="translate(-0.005 0)"/><path class="cls-1" d="M78.926,121.5a.332.332,0,0,1-.323-.253,61.086,61.086,0,0,0-7.321-17.414.333.333,0,1,1,.567-.35,61.738,61.738,0,0,1,7.4,17.6.333.333,0,0,1-.244.4A.359.359,0,0,1,78.926,121.5Z" transform="translate(-0.005 0)"/><path class="cls-1" d="M76.168,106.264a.335.335,0,0,1-.3-.176l-2.671-5a.333.333,0,1,1,.587-.315l2.673,5a.335.335,0,0,1-.289.491Z" transform="translate(-0.005 0)"/><path class="cls-1" d="M38.465,112.111a.329.329,0,0,1-.275-.144.334.334,0,0,1,.086-.464,61.482,61.482,0,0,1,28.153-10.417.333.333,0,1,1,.071.663,60.808,60.808,0,0,0-27.847,10.3A.335.335,0,0,1,38.465,112.111Z" transform="translate(-0.005 0)"/><path class="cls-1" d="M53.95,100.383a.333.333,0,0,1-.086-.655A46.124,46.124,0,0,1,73.327,98.8a.334.334,0,0,1-.111.658,45.444,45.444,0,0,0-19.179.914A.319.319,0,0,1,53.95,100.383Z" transform="translate(-0.005 0)"/><path class="cls-1" d="M122.269,169.275a.286.286,0,0,1-.077-.01.332.332,0,0,1-.247-.4h0a71.963,71.963,0,0,0-.3-34.5.333.333,0,0,1,.646-.166,72.642,72.642,0,0,1,.3,34.82A.333.333,0,0,1,122.269,169.275Z" transform="translate(-0.005 0)"/><path class="cls-1" d="M126.136,167.963a.318.318,0,0,1-.11-.019.333.333,0,0,1-.213-.394,47.11,47.11,0,0,0,.851-17.89.334.334,0,0,1,.66-.1,47.792,47.792,0,0,1-.723,17.556.335.335,0,0,1,0,.293l-.167.359A.333.333,0,0,1,126.136,167.963Z" transform="translate(-0.005 0)"/><path class="cls-1" d="M120.129,165.586a.366.366,0,0,1-.057-.005.334.334,0,0,1-.273-.384,54.414,54.414,0,0,0,.774-9.579.334.334,0,0,1,.331-.336h0a.332.332,0,0,1,.333.33,55.214,55.214,0,0,1-.783,9.7A.335.335,0,0,1,120.129,165.586Z" transform="translate(-0.005 0)"/><path class="cls-1" d="M139.978,160.457a.542.542,0,0,1-.057,0,.333.333,0,0,1-.273-.385,49.548,49.548,0,0,0-2.049-24.551.333.333,0,1,1,.632-.211,50.192,50.192,0,0,1,2.075,24.874A.333.333,0,0,1,139.978,160.457Z" transform="translate(-0.005 0)"/><path class="cls-1" d="M143.9,154.907h-.054a.334.334,0,0,1-.276-.383A29.969,29.969,0,0,0,142.907,144a.334.334,0,0,1,.649-.154,30.674,30.674,0,0,1,.673,10.779A.333.333,0,0,1,143.9,154.907Z" transform="translate(-0.005 0)"/><path class="cls-1" d="M170.192,137.132a.332.332,0,0,1-.329-.283,90.88,90.88,0,0,0-12.651-34.177.333.333,0,0,1,.565-.353h0a91.52,91.52,0,0,1,12.745,34.43.332.332,0,0,1-.277.379h0A.292.292,0,0,1,170.192,137.132Z" transform="translate(-0.005 0)"/><path class="cls-1" d="M163.741,124.632a.333.333,0,0,1-.322-.247,53.57,53.57,0,0,0-5.611-13.342.334.334,0,0,1,.575-.339,54.2,54.2,0,0,1,5.679,13.508.334.334,0,0,1-.234.409h0A.356.356,0,0,1,163.741,124.632Z" transform="translate(-0.005 0)"/><path class="cls-1" d="M165.739,131.472a.333.333,0,0,1-.313-.216l-1.124-3.017a.333.333,0,1,1,.625-.232l1.124,3.016a.332.332,0,0,1-.2.427h0A.309.309,0,0,1,165.739,131.472Z" transform="translate(-0.005 0)"/><path class="cls-1" d="M172.916,134.126a.333.333,0,0,1-.326-.265,170.269,170.269,0,0,0-5.408-19.872.334.334,0,0,1,.632-.214,171.209,171.209,0,0,1,5.429,19.95.334.334,0,0,1-.255.4h0A.386.386,0,0,1,172.916,134.126Z" transform="translate(-0.005 0)"/><path class="cls-1" d="M161.587,77.525a.333.333,0,0,1-.265-.132A38.767,38.767,0,0,0,145.56,65.187a.334.334,0,0,1,.259-.615,39.451,39.451,0,0,1,16.033,12.417.334.334,0,0,1-.265.536Z" transform="translate(-0.005 0)"/><path class="cls-1" d="M109.142,61.137a.334.334,0,0,1-.106-.65,31.876,31.876,0,0,1,18.386-.475.334.334,0,0,1-.178.643,31.208,31.208,0,0,0-18,.465A.352.352,0,0,1,109.142,61.137Z" transform="translate(-0.005 0)"/><path class="cls-1" d="M141.133,56.288a.337.337,0,0,1-.109-.018,48.853,48.853,0,0,0-17.715-2.611.326.326,0,0,1-.345-.3v-.015a.335.335,0,0,1,.321-.346,49.6,49.6,0,0,1,17.957,2.646.334.334,0,0,1-.108.649Z" transform="translate(-0.005 0)"/><path class="cls-1" d="M147.967,57.973h-.013a5.877,5.877,0,0,1-3.176-1.092.333.333,0,0,1,.389-.541h0a5.208,5.208,0,0,0,2.813.967.334.334,0,0,1-.013.667Z" transform="translate(-0.005 0)"/><path class="cls-1" d="M109.46,54.105h-.02a.333.333,0,0,1-.313-.352h0a26.943,26.943,0,0,0-4.972-17.246.333.333,0,1,1,.542-.388,27.613,27.613,0,0,1,5.1,17.674A.334.334,0,0,1,109.46,54.105Z" transform="translate(-0.005 0)"/><path class="cls-1" d="M99.009,20.141a.33.33,0,0,1-.183-.055,17.979,17.979,0,0,0-6.744-2.664.333.333,0,1,1,.113-.657,18.654,18.654,0,0,1,7,2.764.334.334,0,0,1-.183.612Z" transform="translate(-0.005 0)"/><path class="cls-1" d="M116.466,46.467a.333.333,0,0,1-.331-.3,34.752,34.752,0,0,0-14.812-24.676.333.333,0,1,1,.375-.551h0A35.422,35.422,0,0,1,116.8,46.1a.333.333,0,0,1-.3.367h0A.193.193,0,0,1,116.466,46.467Z" transform="translate(-0.005 0)"/><path class="cls-1" d="M193.835,98.777a.332.332,0,0,1-.329-.286A61.264,61.264,0,0,0,175.49,63.265a.333.333,0,1,1,.463-.479A61.936,61.936,0,0,1,194.166,98.4a.334.334,0,0,1-.283.377A.384.384,0,0,1,193.835,98.777Z" transform="translate(-0.005 0)"/><path class="cls-1" d="M186.642,71.609a.334.334,0,0,1-.262-.127l-4.833-6.167a.333.333,0,0,1,.519-.417l0,.006,4.834,6.166a.334.334,0,0,1-.263.539Z" transform="translate(-0.005 0)"/><path class="cls-1" d="M194.877,90.6a.335.335,0,0,1-.328-.278,42.38,42.38,0,0,0-6.043-15.687.333.333,0,1,1,.561-.359,43.053,43.053,0,0,1,6.14,15.935.334.334,0,0,1-.274.384A.353.353,0,0,1,194.877,90.6Z" transform="translate(-0.005 0)"/><path class="cls-1" d="M192.064,102.771a.334.334,0,0,1-.331-.3,37.51,37.51,0,0,0-4.1-13.348.333.333,0,0,1,.59-.31A38.207,38.207,0,0,1,192.4,102.4a.333.333,0,0,1-.294.368h0A.3.3,0,0,1,192.064,102.771Z" transform="translate(-0.005 0)"/><path class="cls-1" d="M.556,119.026a.342.342,0,0,1-.114-.02.335.335,0,0,1-.2-.428h0A54.377,54.377,0,0,1,17.631,94.731a.333.333,0,0,1,.41.526A53.685,53.685,0,0,0,.869,118.808.333.333,0,0,1,.556,119.026Z" transform="translate(-0.005 0)"/><path class="cls-1" d="M1.123,111.611A.306.306,0,0,1,1,111.588a.333.333,0,0,1-.191-.431h0a32.811,32.811,0,0,1,5.384-9.1.333.333,0,0,1,.511.427A32.174,32.174,0,0,0,1.433,111.4.332.332,0,0,1,1.123,111.611Z" transform="translate(-0.005 0)"/><path class="cls-1" d="M10.933,76.586a.334.334,0,0,1-.251-.552A55.482,55.482,0,0,1,38.876,58.747a.333.333,0,0,1,.161.647A54.8,54.8,0,0,0,11.185,76.471.333.333,0,0,1,10.933,76.586Z" transform="translate(-0.005 0)"/><path class="cls-1" d="M18.8,65.276a.333.333,0,0,1-.191-.607A50.576,50.576,0,0,1,29.293,59a.334.334,0,0,1,.24.623,49.8,49.8,0,0,0-10.546,5.6A.336.336,0,0,1,18.8,65.276Z" transform="translate(-0.005 0)"/><path class="cls-1" d="M37.119,33.25a.333.333,0,0,1-.144-.634A36.743,36.743,0,0,1,44.4,29.992a.333.333,0,1,1,.168.644l-.015,0a36.162,36.162,0,0,0-7.289,2.577A.331.331,0,0,1,37.119,33.25Z" transform="translate(-0.005 0)"/><path class="cls-1" d="M38.445,30.056a.334.334,0,0,1-.12-.645,80.819,80.819,0,0,1,25.461-5.3.315.315,0,0,1,.346.282.236.236,0,0,1,0,.037.334.334,0,0,1-.319.347,80.123,80.123,0,0,0-25.25,5.261A.35.35,0,0,1,38.445,30.056Z" transform="translate(-0.005 0)"/><path class="cls-1" d="M46.315,24.661a.333.333,0,0,1-.094-.653,36.67,36.67,0,0,1,10.246-1.479h0a.334.334,0,0,1,0,.667,35.973,35.973,0,0,0-10.059,1.452A.366.366,0,0,1,46.315,24.661Z" transform="translate(-0.005 0)"/><path class="cls-1" d="M52.759,107.558a.333.333,0,0,1-.118-.645,37.838,37.838,0,0,1,14.345-2.388.335.335,0,0,1,.323.344.317.317,0,0,1-.31.324h-.034a36.995,36.995,0,0,0-14.088,2.344A.321.321,0,0,1,52.759,107.558Z" transform="translate(-0.005 0)"/><path class="cls-1" d="M109.483,122.763a.333.333,0,0,1-.321-.245,87.022,87.022,0,0,0-8.52-20.465.334.334,0,0,1,.578-.333,87.7,87.7,0,0,1,8.585,20.622.333.333,0,0,1-.235.409A.326.326,0,0,1,109.483,122.763Z" transform="translate(-0.005 0)"/><path class="cls-1" d="M33.136,80.854a.333.333,0,0,1-.216-.586,9.71,9.71,0,0,1,4.747-2.214.333.333,0,0,1,.108.658,9.058,9.058,0,0,0-4.422,2.062A.33.33,0,0,1,33.136,80.854Z" transform="translate(-0.005 0)"/><path class="cls-1" d="M134.7,88.461a.336.336,0,0,1-.3-.18,32.961,32.961,0,0,0-16.01-14.987.333.333,0,1,1,.267-.611,33.641,33.641,0,0,1,16.335,15.291.332.332,0,0,1-.141.448h0A.336.336,0,0,1,134.7,88.461Z" transform="translate(-0.005 0)"/><path class="cls-1" d="M126.7,83.463a.334.334,0,0,1-.267-.134,16.988,16.988,0,0,0-4.605-4.241.334.334,0,0,1,.355-.565,17.673,17.673,0,0,1,4.783,4.407.334.334,0,0,1-.266.533Z" transform="translate(-0.005 0)"/></g></g></svg>