<svg xmlns="http://www.w3.org/2000/svg" viewBox="0 0 183.265 180.231"><defs><style>.cls-1{fill:#B7BD9A;}</style></defs><g id="Слой_2" data-name="Слой 2"><g id="OBJECTS"><path class="cls-1" d="M182.493,172.318c-21.658-7.432-38.2-23.429-51.828-41.347a203.366,203.366,0,0,1-19.019-29.466c-5.4-10.453-9.674-21.456-15.306-31.793C89.757,57.627,80.789,46.663,70.936,37.1c-.711-.69-1.8.4-1.088,1.087C79.2,47.26,87.783,57.592,94.18,68.975c5.957,10.6,10.335,21.981,15.88,32.787,10.234,19.944,24.553,39.529,41.55,54.238,8.878,7.683,19.129,14.407,30.529,17.6a.666.666,0,0,0,.354-1.283Z"/><path class="cls-1" d="M69.457,37.131c-4.055,4.9-10.893,3.16-16.014,1.408-5.306-1.815-10.487-4.2-16.09-4.966-10.091-1.379-19.348,3.941-25.312,11.841C5.281,54.369,1.573,66.791.265,77.817A30.722,30.722,0,0,0,2.622,94.571c2.406,5.221,6.113,9.708,9.744,14.112.463.561,1.306.064,1.338-.554a39.5,39.5,0,0,1,24.735-34.4l-.747-1.283c-6.01,5.284-11.818,11.286-14.331,19.073-2.76,8.549-2.478,18.829-1.673,27.675,1.347,14.793,8.272,30.476,23.425,35.4a.825.825,0,0,0,1.034-.788c.265-11.6,1.059-23.708,5.969-34.4,2.375-5.172,5.992-10.989,11.037-13.917,3.634-2.11,10.4-1.8,9.7,4.136-.41,3.485-3.352,6.456-5.286,9.225-6.532,9.348-11.928,20.646-9.643,32.34,2.013,10.3,10.391,17.64,19.7,21.586a50.752,50.752,0,0,0,38.474.151c.689-.276.892-1.422,0-1.61a30.885,30.885,0,0,1-22.858-20.788c-1.6-5.149-2.087-11.578.985-16.3A8.841,8.841,0,0,1,102.4,130.2c3.946.357,5.5,3.8,6.174,7.3,1.2,6.239,1.943,12.567,3.037,18.825.811,4.641,1.94,9.44,4.942,13.2,6.145,7.694,19.028,9.72,28.222,10.464a81.132,81.132,0,0,0,37.767-6.22c.975-.409.547-2.024-.444-1.609a79.665,79.665,0,0,1-39.568,5.914c-6.618-.748-13.8-2.314-19.679-5.563-6.563-3.629-8.525-10.207-9.7-17.142-1.147-6.75-1.425-14.219-3.547-20.741-1.3-3.982-4.51-6.462-8.776-6.114-10.867.887-11.666,14.432-9.18,22.458a32.547,32.547,0,0,0,24.018,21.956v-1.61c-12.938,5.187-28.006,4.98-40.466-1.538-5.466-2.859-10.432-7-13.357-12.51-3.644-6.868-3.325-15.067-.94-22.286,2.2-6.674,6.139-12.475,10.181-18.148,2.377-3.337,5.42-8.337,1.967-12.063C65.4,96.52,54.978,110.4,51.834,116.347c-6.034,11.414-6.985,24.789-7.321,37.457l1.034-.788c-15.344-5.045-21.506-21.439-22.4-36.265-.473-7.823-.667-16.653,1.582-24.217,2.315-7.784,8.153-13.722,14.05-19,.549-.491-.028-1.568-.746-1.283a41.218,41.218,0,0,0-25.895,35.878l1.338-.555C9.526,102.767,5.429,97.791,3.226,91.89.953,85.8,1.358,79.345,2.665,73.1,4.953,62.157,8.62,50.187,16.937,42.277c4.082-3.883,9.344-6.819,15.033-7.318,5.466-.48,10.733,1.308,15.791,3.153,6.694,2.443,16.969,7.084,22.552-.126.465-.6-.353-1.462-.856-.855Z"/><path class="cls-1" d="M70.406,37.8a15,15,0,0,0,3.849-9.173c.276-2.994-.339-6.145.327-9.095A13.028,13.028,0,0,1,78.215,13.4C85.14,6.325,96.439,2.731,106.062,1.848a52.263,52.263,0,0,1,48.914,24.576q.377-.654.751-1.308c-18.714-.137-39.41,1.172-53.1,15.654a.908.908,0,0,0,.4,1.5c17.755,3.3,36.021-6.53,53.443-1,20.772,6.595,24.74,30.95,21.2,49.584l1.359-.553a77.564,77.564,0,0,0-47.285-10.544c-.543.054-1.133.56-.9,1.179,3.459,9.108,16.633,9.786,24.646,11.975,11.4,3.112,19.569,10.618,21.985,22.438,3.713,18.161-13.271,43.488,4.2,58.252.893.754,2.192-.529,1.293-1.293-8.1-6.887-8.149-18.62-6.448-28.266,1.821-10.324,5.086-20.651,2.276-31.121A29.164,29.164,0,0,0,162.5,93.372c-4.528-1.971-9.392-2.922-14.169-4.078-5.488-1.328-13.443-2.9-15.69-8.849l-.9,1.179A76.214,76.214,0,0,1,178.091,91.9a.933.933,0,0,0,1.359-.553c3.408-18.021.452-40.336-17.518-49.76-18.323-9.609-39.207,2.523-58.43-1.053q.2.753.4,1.505c13.359-14.124,33.6-15.228,51.828-15.188a.877.877,0,0,0,.751-1.308C145.988,8.817,126.971-1.319,107.163.139c-9.769.718-19.9,4.026-27.691,10.093-3.282,2.556-6,5.81-6.519,10.064-.735,6.042,1.034,11.571-3.395,16.66-.5.578.329,1.426.848.848Z"/><path class="cls-1" d="M136.946,165.313a.33.33,0,0,1-.267-.134,45.773,45.773,0,0,1-8.266-34.565.333.333,0,1,1,.656.114,45.1,45.1,0,0,0,8.144,34.053.333.333,0,0,1-.068.466A.328.328,0,0,1,136.946,165.313Z"/><path class="cls-1" d="M162.869,134.906a.341.341,0,0,1-.182-.054,40.958,40.958,0,0,0-33.554-4.835.333.333,0,1,1-.19-.639,41.635,41.635,0,0,1,34.108,4.915.333.333,0,0,1-.182.613Z"/><path class="cls-1" d="M82.9,160.009a.331.331,0,0,1-.258-.123c-4.86-5.971-6.918-14.4-5.647-23.125,1.042-7.146,4.281-14.6,9.629-22.152A82.782,82.782,0,0,1,106.589,94.7a.333.333,0,0,1,.384.545A82.128,82.128,0,0,0,87.167,115c-5.286,7.466-8.487,14.822-9.513,21.863-1.245,8.54.761,16.78,5.5,22.607a.334.334,0,0,1-.259.544Z"/><path class="cls-1" d="M146.372,105.222a.322.322,0,0,1-.132-.027c-5.028-2.168-10.637-2.749-16.06-3.311-1.246-.129-2.491-.258-3.729-.405-6.038-.718-13.641-2.169-18.9-7.061a.333.333,0,1,1,.454-.488c5.114,4.76,12.584,6.181,18.52,6.887,1.235.147,2.477.275,3.72.4,5.474.567,11.133,1.153,16.255,3.362a.333.333,0,0,1-.132.639Z"/><path class="cls-1" d="M37.382,116.367a.337.337,0,0,1-.327-.4A64.225,64.225,0,0,1,93.682,65.184a.337.337,0,0,1,.365.3.334.334,0,0,1-.3.363A63.56,63.56,0,0,0,37.708,116.1.334.334,0,0,1,37.382,116.367Z"/><path class="cls-1" d="M93.5,65.692a.334.334,0,0,1-.164-.624,68.314,68.314,0,0,1,57.83-3.851.334.334,0,1,1-.249.619A67.635,67.635,0,0,0,93.66,65.648.323.323,0,0,1,93.5,65.692Z"/><path class="cls-1" d="M16.274,67.354a.327.327,0,0,1-.139-.031.334.334,0,0,1-.164-.442A33.8,33.8,0,0,1,44.185,47.713a66.21,66.21,0,0,1,12.236.87c1.759.236,3.578.48,5.367.654,7.349.714,12.735-.105,16.947-2.58a.333.333,0,1,1,.337.575c-4.338,2.55-9.85,3.4-17.349,2.668-1.8-.175-3.625-.419-5.39-.656a65.424,65.424,0,0,0-12.112-.865A33.119,33.119,0,0,0,16.577,67.16.333.333,0,0,1,16.274,67.354Z"/><path class="cls-1" d="M79.264,46.358a.334.334,0,0,1-.244-.561c2.829-3.022,3.611-7.084,4.44-11.384a34.558,34.558,0,0,1,2.505-8.777c2.267-4.6,6.9-8.333,12.7-10.241,5.575-1.834,11.432-1.9,16.43-1.722a.332.332,0,0,1,.321.344.324.324,0,0,1-.345.322c-4.939-.175-10.722-.111-16.2,1.689-5.635,1.853-10.123,5.462-12.311,9.9a34.04,34.04,0,0,0-2.448,8.608c-.81,4.2-1.648,8.551-4.608,11.714A.332.332,0,0,1,79.264,46.358Z"/><path class="cls-1" d="M48.26,98.343a.347.347,0,0,1-.11-.018.334.334,0,0,1-.2-.425,21.533,21.533,0,0,1,5.184-8.183.333.333,0,1,1,.467.475,20.88,20.88,0,0,0-5.022,7.928A.333.333,0,0,1,48.26,98.343Z"/><path class="cls-1" d="M56.576,87a.333.333,0,0,1-.24-.564A63.076,63.076,0,0,1,89.5,68.409a.333.333,0,1,1,.126.654A62.418,62.418,0,0,0,56.816,86.9.332.332,0,0,1,56.576,87Z"/><path class="cls-1" d="M78.266,76.539a.333.333,0,0,1-.168-.621,41.977,41.977,0,0,1,17.6-5.6.333.333,0,0,1,.056.664,41.319,41.319,0,0,0-17.323,5.514A.333.333,0,0,1,78.266,76.539Z"/><path class="cls-1" d="M94.919,68.349a.334.334,0,0,1-.176-.617,46.936,46.936,0,0,1,17.608-6.474.333.333,0,0,1,.1.659A46.236,46.236,0,0,0,95.1,68.3.34.34,0,0,1,94.919,68.349Z"/><path class="cls-1" d="M96.085,60.518a.333.333,0,0,1-.129-.641,90.736,90.736,0,0,1,26.414-6.646.333.333,0,1,1,.064.663,90.087,90.087,0,0,0-26.22,6.6A.33.33,0,0,1,96.085,60.518Z"/><path class="cls-1" d="M126.081,53.533a.333.333,0,0,1-.014-.666l4.167-.167a.328.328,0,0,1,.347.319.334.334,0,0,1-.32.347l-4.167.167Z"/><path class="cls-1" d="M83.234,63.443a.333.333,0,0,1-.062-.661l7-1.317a.333.333,0,0,1,.123.655l-7,1.317A.326.326,0,0,1,83.234,63.443Z"/><path class="cls-1" d="M64.689,71.43a.333.333,0,0,1-.2-.6,38.683,38.683,0,0,1,14.182-6.811.33.33,0,0,1,.4.243.334.334,0,0,1-.244.4,38,38,0,0,0-13.935,6.693A.33.33,0,0,1,64.689,71.43Z"/><path class="cls-1" d="M93.929,76.356a.329.329,0,0,1-.245-.108.333.333,0,0,1,.019-.471A5.879,5.879,0,0,1,98.466,74.3a.334.334,0,0,1,.283.378.341.341,0,0,1-.378.282,5.188,5.188,0,0,0-4.216,1.308A.334.334,0,0,1,93.929,76.356Z"/><path class="cls-1" d="M75.109,131.3a.313.313,0,0,1-.095-.014.333.333,0,0,1-.224-.415,64.314,64.314,0,0,1,15.5-26.31.333.333,0,0,1,.477.466A63.639,63.639,0,0,0,75.428,131.06.332.332,0,0,1,75.109,131.3Z"/><path class="cls-1" d="M95.624,100.209a.334.334,0,0,1-.256-.547,23.91,23.91,0,0,1,10.4-7.228.334.334,0,0,1,.222.629,23.246,23.246,0,0,0-10.112,7.026A.333.333,0,0,1,95.624,100.209Z"/><path class="cls-1" d="M95.191,110.3a.329.329,0,0,1-.207-.073.334.334,0,0,1-.054-.468,59.463,59.463,0,0,1,7.284-7.642.333.333,0,0,1,.44.5,58.793,58.793,0,0,0-7.2,7.556A.331.331,0,0,1,95.191,110.3Z"/><path class="cls-1" d="M80.881,140.509a.332.332,0,0,1-.33-.291,20.127,20.127,0,0,1,1.555-10.682.333.333,0,1,1,.609.269,19.477,19.477,0,0,0-1.5,10.328.333.333,0,0,1-.288.373Z"/><path class="cls-1" d="M121.145,96.128h0A20.417,20.417,0,0,1,112.788,94a60.849,60.849,0,0,1-7.386-4.373.333.333,0,1,1,.366-.557,60.237,60.237,0,0,0,7.3,4.326,19.733,19.733,0,0,0,8.077,2.069.334.334,0,0,1,0,.667Z"/><path class="cls-1" d="M125.025,104.322a33.851,33.851,0,0,1-11.25-1.927.334.334,0,0,1,.222-.629,33.131,33.131,0,0,0,13.22,1.815.337.337,0,0,1,.355.31.332.332,0,0,1-.31.355C126.52,104.3,125.772,104.322,125.025,104.322Z"/><path class="cls-1" d="M134.743,106.008a.333.333,0,0,1-.215-.079,4.134,4.134,0,0,0-3.078-.93.341.341,0,0,1-.369-.293.333.333,0,0,1,.293-.369,4.8,4.8,0,0,1,3.585,1.083.333.333,0,0,1-.216.588Z"/><path class="cls-1" d="M104.1,107.521a.328.328,0,0,1-.2-.065.333.333,0,0,1-.072-.466,17.639,17.639,0,0,1,6.191-5.257.334.334,0,0,1,.3.595,16.949,16.949,0,0,0-5.955,5.057A.334.334,0,0,1,104.1,107.521Z"/><path class="cls-1" d="M124.645,146.488a.335.335,0,0,1-.323-.25,25.4,25.4,0,0,1,2.014-17.86.333.333,0,1,1,.591.308,24.722,24.722,0,0,0-1.959,17.385.333.333,0,0,1-.239.406A.308.308,0,0,1,124.645,146.488Z"/><path class="cls-1" d="M126.245,153.005a.333.333,0,0,1-.326-.268l-.5-2.5a.333.333,0,0,1,.654-.131l.5,2.5a.333.333,0,0,1-.262.392A.284.284,0,0,1,126.245,153.005Z"/><path class="cls-1" d="M130.7,141.012a.335.335,0,0,1-.33-.285,19.62,19.62,0,0,1,.229-6.956.333.333,0,0,1,.652.139,18.952,18.952,0,0,0-.221,6.72.333.333,0,0,1-.282.378A.259.259,0,0,1,130.7,141.012Z"/><path class="cls-1" d="M130.911,126a.333.333,0,0,1-.118-.645,11.225,11.225,0,0,1,4.983-.679.333.333,0,0,1,.3.363.337.337,0,0,1-.362.3,10.55,10.55,0,0,0-4.685.638A.33.33,0,0,1,130.911,126Z"/><path class="cls-1" d="M152.091,126.137a.346.346,0,0,1-.109-.018,28.5,28.5,0,0,0-11.705-1.434.339.339,0,0,1-.362-.3.334.334,0,0,1,.3-.362,29.166,29.166,0,0,1,11.982,1.468.333.333,0,0,1-.109.648Z"/><path class="cls-1" d="M146.764,133.614a.346.346,0,0,1-.1-.015,21.229,21.229,0,0,0-11.971-.19.333.333,0,1,1-.18-.642,21.906,21.906,0,0,1,12.352.2.333.333,0,0,1-.1.651Z"/><path class="cls-1" d="M165.094,178.455a.318.318,0,0,1-.091-.013A40.886,40.886,0,0,1,141.835,161.1a.333.333,0,1,1,.564-.355A40.215,40.215,0,0,0,165.185,177.8a.333.333,0,0,1-.091.654Z"/><path class="cls-1" d="M169.2,177.078a.32.32,0,0,1-.061,0,30.811,30.811,0,0,1-15.043-7.4.333.333,0,1,1,.446-.5,30.141,30.141,0,0,0,14.718,7.243.333.333,0,0,1-.06.661Z"/><path class="cls-1" d="M147.255,172.491a.335.335,0,0,1-.177-.05,16.594,16.594,0,0,1-3.756-3.213.333.333,0,1,1,.5-.436,15.928,15.928,0,0,0,3.606,3.083.333.333,0,0,1-.176.616Z"/><path class="cls-1" d="M157.545,179.638a.342.342,0,0,1-.083-.01,18.808,18.808,0,0,1-8.252-4.577.334.334,0,0,1,.46-.483,18.124,18.124,0,0,0,7.958,4.414.333.333,0,0,1-.083.656Z"/><path class="cls-1" d="M174.077,153.508a.334.334,0,0,1-.233-.095,37.61,37.61,0,0,0-15.864-9.227.333.333,0,1,1,.183-.64,38.26,38.26,0,0,1,16.147,9.39.334.334,0,0,1-.233.572Z"/><path class="cls-1" d="M174.372,150.373a.333.333,0,0,1-.254-.117,16.382,16.382,0,0,0-6.824-4.761.333.333,0,1,1,.229-.625,17.036,17.036,0,0,1,7.1,4.954.333.333,0,0,1-.254.549Z"/><path class="cls-1" d="M179.227,120.366a.335.335,0,0,1-.191-.06,42.717,42.717,0,0,0-27.273-7.554.337.337,0,0,1-.355-.31.333.333,0,0,1,.309-.355,43.392,43.392,0,0,1,27.7,7.672.333.333,0,0,1-.19.607Z"/><path class="cls-1" d="M166.925,110.62a.329.329,0,0,1-.076-.009l-5-1.176a.333.333,0,0,1,.152-.649l5,1.176a.333.333,0,0,1-.076.658Z"/><path class="cls-1" d="M178.23,115.529a.335.335,0,0,1-.188-.058,29.113,29.113,0,0,0-8.7-4.028.333.333,0,1,1,.177-.642,29.773,29.773,0,0,1,8.9,4.119.333.333,0,0,1-.187.609Z"/><path class="cls-1" d="M173.743,121.676a.329.329,0,0,1-.157-.039,58.61,58.61,0,0,0-8.63-3.771.333.333,0,1,1,.216-.63,59.126,59.126,0,0,1,8.729,3.813.333.333,0,0,1-.158.627Z"/><path class="cls-1" d="M83,173.936a.319.319,0,0,1-.144-.033c-4.963-2.391-9.087-7.137-11.612-13.365-2.267-5.592-3.078-11.718-3.714-17.513a.334.334,0,1,1,.663-.073c.631,5.749,1.434,11.822,3.669,17.335,2.462,6.075,6.47,10.7,11.283,13.016a.333.333,0,0,1-.145.633Z"/><path class="cls-1" d="M68.357,160.706a.332.332,0,0,1-.283-.158,19.92,19.92,0,0,1-2.95-10.715.361.361,0,0,1,.34-.327.333.333,0,0,1,.327.339,19.237,19.237,0,0,0,2.85,10.352.334.334,0,0,1-.284.509Z"/><path class="cls-1" d="M90.027,175.778a.332.332,0,0,1-.146-.034,36.086,36.086,0,0,1-14.6-13.046.333.333,0,1,1,.562-.358,35.421,35.421,0,0,0,14.335,12.805.333.333,0,0,1-.147.633Z"/><path class="cls-1" d="M109.488,125.815a.289.289,0,0,1-.082-.011.333.333,0,0,1-.241-.405,19.682,19.682,0,0,1,8.174-11.427.333.333,0,1,1,.366.557,19.011,19.011,0,0,0-7.894,11.036A.333.333,0,0,1,109.488,125.815Z"/><path class="cls-1" d="M74.205,98.136a.328.328,0,0,1-.221-.085.332.332,0,0,1-.028-.47A41.626,41.626,0,0,1,90,86.458a.333.333,0,0,1,.24.622A40.955,40.955,0,0,0,74.454,98.024.333.333,0,0,1,74.205,98.136Z"/><path class="cls-1" d="M92.413,85.338a.333.333,0,0,1-.179-.615,9.308,9.308,0,0,1,3.977-1.383.326.326,0,0,1,.366.3.332.332,0,0,1-.3.366,8.607,8.607,0,0,0-3.69,1.284A.33.33,0,0,1,92.413,85.338Z"/><path class="cls-1" d="M110.083,74.68a.333.333,0,0,1-.121-.644,63.1,63.1,0,0,1,25.13-4.178.333.333,0,0,1,.32.346.321.321,0,0,1-.347.32A62.464,62.464,0,0,0,110.2,74.657.32.32,0,0,1,110.083,74.68Z"/><path class="cls-1" d="M143.411,71.007a.332.332,0,0,1-.149-.035,6.179,6.179,0,0,0-4.108-.482.333.333,0,0,1-.152-.649,6.855,6.855,0,0,1,4.559.535.333.333,0,0,1-.15.631Z"/><path class="cls-1" d="M179.556,78.2a.336.336,0,0,1-.2-.063,49.713,49.713,0,0,0-19.172-8.352.333.333,0,0,1,.131-.653A50.364,50.364,0,0,1,179.751,77.6a.334.334,0,0,1-.195.6Z"/><path class="cls-1" d="M178.766,82.134a.329.329,0,0,1-.157-.039L167.3,76.045a.334.334,0,0,1,.315-.588l11.307,6.05a.333.333,0,0,1-.158.627Z"/><path class="cls-1" d="M169.746,69.005a.334.334,0,0,1-.143-.032l-3.166-1.5a.333.333,0,1,1,.285-.6l3.167,1.5a.333.333,0,0,1-.143.634Z"/><path class="cls-1" d="M179.587,73.829a.327.327,0,0,1-.215-.079,24.029,24.029,0,0,0-6.775-4.029.333.333,0,0,1,.242-.621,24.68,24.68,0,0,1,6.963,4.141.333.333,0,0,1-.215.588Z"/><path class="cls-1" d="M173.636,54.014a.348.348,0,0,1-.113-.019,114.01,114.01,0,0,0-22.646-5.567.333.333,0,0,1,.092-.66,114.715,114.715,0,0,1,22.78,5.6.333.333,0,0,1-.113.647Z"/><path class="cls-1" d="M170.262,48.971a.341.341,0,0,1-.139-.03,23.059,23.059,0,0,0-10.2-2.065.334.334,0,0,1-.02-.667,23.687,23.687,0,0,1,10.5,2.125.334.334,0,0,1-.138.637Z"/><path class="cls-1" d="M25.1,61.019a.332.332,0,0,1-.248-.555,27.808,27.808,0,0,1,25.488-8.592.334.334,0,0,1-.126.655,27.134,27.134,0,0,0-24.866,8.381A.331.331,0,0,1,25.1,61.019Z"/><path class="cls-1" d="M57.238,52.879a.33.33,0,0,1-.069-.007L54,52.21a.333.333,0,1,1,.137-.652l3.168.662a.333.333,0,0,1-.068.659Z"/><path class="cls-1" d="M68.423,53.275a.333.333,0,0,1-.034-.665,26.943,26.943,0,0,0,11.837-4.224.333.333,0,1,1,.364.558,27.605,27.605,0,0,1-12.131,4.329Z"/><path class="cls-1" d="M86.141,37.5a.4.4,0,0,1-.06,0,.333.333,0,0,1-.269-.387c.625-3.476,1.333-7.414,3.049-10.585,1.6-2.953,4.7-5.41,8.735-6.919a.333.333,0,1,1,.233.624c-3.884,1.453-6.861,3.8-8.382,6.612-1.665,3.077-2.363,6.96-2.979,10.385A.333.333,0,0,1,86.141,37.5Z"/><path class="cls-1" d="M76.628,43.8a.333.333,0,0,1-.288-.5,42.139,42.139,0,0,0,5.228-14.867.333.333,0,1,1,.659.1,42.814,42.814,0,0,1-5.311,15.1A.332.332,0,0,1,76.628,43.8Z"/><path class="cls-1" d="M64.531,47.587a49.382,49.382,0,0,1-15.284-2.418.333.333,0,1,1,.207-.633,48.754,48.754,0,0,0,21.294,1.983.333.333,0,1,1,.086.661A48.776,48.776,0,0,1,64.531,47.587Z"/><path class="cls-1" d="M116.252,22.187a.333.333,0,0,1-.121-.644,58.212,58.212,0,0,1,35.726-1.956.333.333,0,1,1-.171.644,57.53,57.53,0,0,0-35.314,1.934A.335.335,0,0,1,116.252,22.187Z"/><path class="cls-1" d="M153.577,23.177a.344.344,0,0,1-.117-.021,34.4,34.4,0,0,0-17.807-1.714.333.333,0,0,1-.111-.657A35.089,35.089,0,0,1,153.7,22.531a.334.334,0,0,1-.118.646Z"/><path class="cls-1" d="M130.747,16.676a.333.333,0,0,1-.092-.653,21.351,21.351,0,0,1,10.656-.3.333.333,0,0,1-.149.65,20.7,20.7,0,0,0-10.322.291A.331.331,0,0,1,130.747,16.676Z"/><path class="cls-1" d="M107.557,26.312a.333.333,0,0,1-.215-.588,15.962,15.962,0,0,1,4.961-2.859.333.333,0,0,1,.224.628,15.276,15.276,0,0,0-4.754,2.741A.34.34,0,0,1,107.557,26.312Z"/><path class="cls-1" d="M6.246,98.845a.333.333,0,0,1-.333-.326A25.26,25.26,0,0,1,17.418,77.083a.333.333,0,1,1,.357.563,24.581,24.581,0,0,0-11.2,20.859.333.333,0,0,1-.326.34Z"/><path class="cls-1" d="M3.358,94.512a.333.333,0,0,1-.333-.322,13.233,13.233,0,0,1,3.509-9.381.333.333,0,1,1,.489.453,12.564,12.564,0,0,0-3.332,8.906.333.333,0,0,1-.322.344Z"/><path class="cls-1" d="M8.413,83.005a.334.334,0,0,1-.272-.527,8.047,8.047,0,0,1,2.783-2.435.333.333,0,0,1,.311.59,7.38,7.38,0,0,0-2.551,2.232A.332.332,0,0,1,8.413,83.005Z"/><path class="cls-1" d="M8,101.693a.334.334,0,0,1-.332-.3,17.268,17.268,0,0,1,1.484-8.668A.333.333,0,1,1,9.762,93a16.6,16.6,0,0,0-1.425,8.333.334.334,0,0,1-.3.361Z"/><path class="cls-1" d="M36.563,74.65a.334.334,0,0,1-.2-.6,48.931,48.931,0,0,1,20.142-8.934.333.333,0,1,1,.125.655,48.245,48.245,0,0,0-19.866,8.812A.335.335,0,0,1,36.563,74.65Z"/><path class="cls-1" d="M34.615,71.063a.334.334,0,0,1-.175-.618A47.432,47.432,0,0,1,43.1,66.274a.333.333,0,1,1,.227.627,46.746,46.746,0,0,0-8.54,4.112A.33.33,0,0,1,34.615,71.063Z"/><path class="cls-1" d="M45.579,65.505a.333.333,0,0,1-.02-.666l2.666-.167a.334.334,0,1,1,.042.666L45.6,65.5Z"/><path class="cls-1" d="M39.956,150.892a.333.333,0,0,1-.3-.2,35.664,35.664,0,0,1-.908-26.142.334.334,0,0,1,.628.225,34.992,34.992,0,0,0,.891,25.649.334.334,0,0,1-.306.467Z"/><path class="cls-1" d="M33.917,135.672a.334.334,0,0,1-.334-.327,18.514,18.514,0,0,1,1.172-6.795.333.333,0,1,1,.623.234,17.888,17.888,0,0,0-1.128,6.548.335.335,0,0,1-.328.34Z"/><path class="cls-1" d="M35.956,149.151a.336.336,0,0,1-.3-.188,22.916,22.916,0,0,1-2.244-11.48.326.326,0,0,1,.355-.311.334.334,0,0,1,.31.355,22.239,22.239,0,0,0,2.179,11.145.334.334,0,0,1-.3.479Z"/><path class="cls-1" d="M30.778,143a.333.333,0,0,1-.316-.229,14.279,14.279,0,0,1-.631-5.973.333.333,0,0,1,.662.072,13.644,13.644,0,0,0,.6,5.692.333.333,0,0,1-.212.421A.343.343,0,0,1,30.778,143Z"/><path class="cls-1" d="M43.876,153.606a.336.336,0,0,1-.3-.182,32.664,32.664,0,0,1-3.372-11.718.332.332,0,0,1,.3-.362.345.345,0,0,1,.362.3,31.983,31.983,0,0,0,3.3,11.477.334.334,0,0,1-.146.448A.345.345,0,0,1,43.876,153.606Z"/></g></g></svg>